<?xml version="1.0" encoding="UTF-8" standalone="no"?>
<svg
   xmlns:dc="http://purl.org/dc/elements/1.1/"
   xmlns:cc="http://creativecommons.org/ns#"
   xmlns:rdf="http://www.w3.org/1999/02/22-rdf-syntax-ns#"
   xmlns:svg="http://www.w3.org/2000/svg"
   xmlns="http://www.w3.org/2000/svg"
   xmlns:sodipodi="http://sodipodi.sourceforge.net/DTD/sodipodi-0.dtd"
   xmlns:inkscape="http://www.inkscape.org/namespaces/inkscape"
   version="1.1"
   id="svg3644"
   x="0px"
   y="0px"
   viewBox="0 0 4129.0323 4129.0323"
   enable-background="new 0 0 2000 2000"
   xml:space="preserve"
   width="512"
   height="512"
   body-color="#282828"
   body-color-secondary="#494949"
   body-color-teriary="#99C7C9"
   body-color-accent="#453E2D"
   eye-color="#503B37"
   hair-color="#0"
   face-hair-color="#9F592A"
   sodipodi:docname="logo.svg"
   inkscape:version="0.92.5 (2060ec1f9f, 2020-04-08)"
   inkscape:export-filename="/home/balog/Deving/blog/public/icon.png"
   inkscape:export-xdpi="96"
   inkscape:export-ydpi="96"><metadata
   id="metadata3650"><rdf:RDF><cc:Work
       rdf:about=""><dc:format>image/svg+xml</dc:format><dc:type
         rdf:resource="http://purl.org/dc/dcmitype/StillImage" /><dc:title /></cc:Work></rdf:RDF></metadata><defs
   id="defs3648">
		
	
			
			
			
		
		
	
			
			
			
			
			
			
			
			
			
			
			
			
			

			

			
		</defs><sodipodi:namedview
   pagecolor="#ffffff"
   bordercolor="#666666"
   borderopacity="1"
   objecttolerance="10"
   gridtolerance="10"
   guidetolerance="10"
   inkscape:pageopacity="0"
   inkscape:pageshadow="2"
   inkscape:window-width="1366"
   inkscape:window-height="707"
   id="namedview3646"
   showgrid="false"
   inkscape:zoom="1.4142136"
   inkscape:cx="258.51218"
   inkscape:cy="288.76402"
   inkscape:window-x="0"
   inkscape:window-y="25"
   inkscape:window-maximized="1"
   inkscape:current-layer="svg3644"
   fit-margin-top="0"
   fit-margin-left="0"
   fit-margin-right="0"
   fit-margin-bottom="0" />

	

	
	

	
	

	

	

	
	
	

	
	
	<g
   id="footwear-holder"
   data-cat="footwear"
   class=""
   transform="translate(919.35486,2685.4836)">
		
	</g>

	<g
   id="Mask"
   transform="matrix(2.9683834,0,0,2.9683834,-676.20304,505.50114)">
		<path
   class="face-fill-color"
   d="m 1299.2,759.5 c -4,-34.1 -22.4,-48.2 -27.1,-60.1 -1.2,-1.1 -2,-2.7 -2.1,-4.4 -2,-38.3 11.1,-122 -1,-185.6 -12.1,-63.5 -52.3,-86.4 -70.5,-85.4 -24.2,1.3 -104.4,1 -185.1,2 -80.7,1 -178,-6.5 -254.7,18.7 -76.7,25.2 -94.9,123.2 -84.8,199.9 10.1,76.7 31.3,90.8 33.3,113 1.3,14.2 -23.9,38.5 -13.1,87.8 11.1,50.4 112,109.9 241.1,109.9 40.3,0 74.6,-29.3 114,-31.3 23.4,-1.2 49.1,8.4 99.3,-6.1 1.4,-0.4 2.9,-0.8 4.3,-1.3 45,-21.6 81.7,-48 107.1,-74.4 13.7,-14.2 23.8,-28.6 30.4,-42.2 7.3,-15.1 10.2,-29.3 8.9,-40.5 z"
   id="path675"
   inkscape:connector-curvature="0"
   style="fill:#8e5740" />

		<path
   class="face-accent-fill-color"
   stroke-miterlimit="10"
   d="m 1018.3,766.7 c 0.6,8.9 18.8,8 27.9,6.8 9.1,-1.2 19.6,-8.1 19.3,-11 -0.3,-2.9 -7.1,-12.5 -26,-10.2 -18.9,2.3 -21.2,14.4 -21.2,14.4 z"
   id="path677"
   inkscape:connector-curvature="0"
   style="fill:#453e2d;stroke:#000000;stroke-width:3;stroke-miterlimit:10;stroke-opacity:0.2" />
	</g><g
   id="Mask_Shadow"
   transform="matrix(2.9683834,0,0,2.9683834,-676.20304,505.50114)">
		<path
   enable-background="new    "
   d="m 1020.7,764.3 c -1.9,1.5 -1.4,4.2 0.5,5.9 1.9,1.6 4.6,2.2 7.3,2.6 12,2.2 25.3,2.8 36.1,-2 0.3,-0.1 0.6,-0.3 0.6,-0.5 0,-0.2 -0.5,-0.3 -0.6,-0.1 -11.5,8.4 -25.6,12 -41.1,10.7 -4.7,-0.4 -9.9,-1.5 -12.5,-4.7 -2.1,-2.6 -2,-6.4 0.2,-8.9 2.1,-2.7 5.6,-3.2 9.5,-3 z"
   id="path680"
   inkscape:connector-curvature="0"
   style="opacity:0.02999998;fill:#000d26" />
		<path
   enable-background="new    "
   d="m 1259.8,842.2 c 12.4,-12.9 21.9,-26 28.4,-38.4 -91.5,95.3 -150.9,101.3 -236.7,109 -88.8,8.1 -32.3,-4 -115,6.1 -76.9,9.4 -174.5,-9.1 -244.6,-86.2 0.4,4.2 1.1,8.4 2,12.6 11.1,50.4 112,109.9 241.1,109.9 40.3,0 74.6,-29.3 114,-31.3 24.1,-1.2 50.5,9 103.7,-7.3 45,-21.5 81.7,-47.9 107.1,-74.4 z"
   id="path682"
   inkscape:connector-curvature="0"
   style="opacity:0.02999998;fill:#000d26" />
		<path
   enable-background="new    "
   d="m 1268.9,509.4 c -12.1,-63.5 -52.3,-86.4 -70.5,-85.4 -23,1.3 -86,-34.6 -161.1,-26.3 -5.1,0.2 -69.5,6.7 -74.5,7 C 883.2,404 851,428.5 775.3,453.4 698.6,478.6 663.8,568 673.9,644.6 c 10.1,76.7 31.3,90.8 33.3,113 0.1,1.2 0,2.3 -0.2,3.5 0.6,-3.8 24.9,-8.5 28.2,-9.2 12.7,-2.7 25.6,-4.3 38.6,-4.8 34.8,-1.8 69.8,2.1 103.9,8.9 3.6,0.7 7.3,1.3 10.9,1.8 l 2.5,1 4.1,0.9 c 0.9,0 1.7,-0.1 2.6,-0.1 -0.6,-0.3 -1.3,-0.7 -1.9,-1.1 18.1,1.4 35.6,-0.6 51.4,-8.2 35.8,-10.3 72.1,-24.9 105.2,-22.9 49.4,3 49.4,20.2 75.6,14.1 4.1,-1 8.4,-3.1 12.9,-6.1 9.1,-3.2 17,-9.6 24.4,-15.9 2.3,-2 4.6,-3.9 6.9,-6 21.8,-13.6 51.5,-25.5 97.4,-18.5 -1.8,-38.3 11.3,-122.1 -0.8,-185.6 z"
   id="path684"
   inkscape:connector-curvature="0"
   style="opacity:0.02999998;fill:#000d26" />
	</g><g
   id="Body"
   transform="matrix(2.9683834,0,0,2.9683834,-676.20304,505.50114)">
		<path
   class="main-body-fill"
   d="m 1061.1,946.5 -0.3,0.1 c 29.6,-7.4 58.5,-17.7 86.2,-30.5 -49.8,14.3 -75.3,4.8 -98.5,6 -39,2 -73,31 -113,31 -128,0 -228,-59 -239,-109 -10.7,-48.8 14.3,-72.9 13,-87 -2,-22 -23,-36 -33,-112 -10,-76 37,-136 113,-161 76,-25 154,41 234,40 80,-1 147,-81.7 171,-83 18,-1 60,7 72,70 12,63 -1,146 1,184 0.1,1.7 0.8,3.3 2.1,4.4 4.7,11.8 22.9,25.8 26.9,59.6 1.3,11.1 -1.6,25.1 -8.9,40.2 7.7,-15.5 10.8,-29.8 9.4,-41.2 -4.5,-38.1 -27,-51 -28,-64 -1,-13 19,-83 17,-170 -2,-87 -44,-129 -92,-171 -48,-42 -138,-85 -277,-83 -139,2 -299.2,118.8 -327,172.9 -37,72 -52,126 -19,257 25.2,100.2 95.9,212 246,251 46.2,12 101.8,14.1 163,9 3.6,-0.3 7.2,-0.6 10.8,-1 v 0 c 50.202,-8.0531 33.8421,-4.73883 70.3,-12.5 z"
   id="path687"
   inkscape:connector-curvature="0"
   style="fill:#282828"
   sodipodi:nodetypes="ccccsccssscscccccsssscccsccc" />
		
	</g><g
   id="Body_Shadow"
   transform="matrix(2.9683834,0,0,2.9683834,-675.90624,506.39164)">
		
		
		<path
   enable-background="new    "
   d="m 1154.5,912.5 -1.8,0.9 z"
   id="path694"
   inkscape:connector-curvature="0"
   style="opacity:0.3;fill:#091426" />
		<path
   enable-background="new    "
   d="m 1149.5,914.8 -1.8,0.8 z"
   id="path696"
   inkscape:connector-curvature="0"
   style="opacity:0.3;fill:#091426" />
		<path
   enable-background="new    "
   d="m 1048.5,922 c -39,2 -73,31 -113,31 -88.7,0 -163.9,-28.3 -205.4,-62.3 -0.4,-0.2 -0.8,-0.5 -1.1,-0.7 -46,-31 -50.3,-58.2 -58,-72 -11.4,-20.4 0.5,-42.1 -12.9,-50.4 -31.5,-19.5 -94,-198.5 -27,-307.5 8.4,-13.6 29.2,-26 40.9,-37.5 9,-8.9 8.3,-17.2 18.9,-24.8 85.3,-61 215.8,-81.9 286.7,-57.8 -65,-22 -82.6,-27.1 -69.6,-38.1 12.3,-10.4 133.7,-3.8 162.2,14 -30.4,-22.7 -25.9,-41.2 -147.5,-46.1 -1.9,0 -3.8,0 -5.7,0 -139,2 -299.2,118.9 -327,173 -37,72 -52,126 -19,257 25.2,100.2 95.9,212 246,251 46.2,12 101.8,14.1 163,9 57.8,-4.8 114.3,-19.7 166.9,-44 -49.7,14.5 -75.2,5 -98.4,6.2 z"
   id="path698"
   inkscape:connector-curvature="0"
   style="opacity:0.3;fill:#091426" />
		<path
   enable-background="new    "
   d="m 1173.4,902.7 c 0.2,-0.1 0.4,-0.2 0.6,-0.3 v 0 z"
   id="path700"
   inkscape:connector-curvature="0"
   style="opacity:0.3;fill:#091426" />
		<path
   enable-background="new    "
   d="m 1159.3,910.1 -1.5,0.8 z"
   id="path702"
   inkscape:connector-curvature="0"
   style="opacity:0.3;fill:#091426" />
		<path
   enable-background="new    "
   d="m 1170,904.5 -1.2,0.6 z"
   id="path704"
   inkscape:connector-curvature="0"
   style="opacity:0.3;fill:#091426" />
		<path
   enable-background="new    "
   d="m 1164,907.7 -0.2,0.1 z"
   id="path706"
   inkscape:connector-curvature="0"
   style="opacity:0.3;fill:#091426" />
		
		
		
		
		
		
		
		
		
		
		
		
		
		
		
		
		
		
		
		
		
		
		
		
		
		
		
		
		
		
		
		
		
		
		
		
		
		
		
		
		
		
		
		
		
		
		
		
		
		
		
		
		
		
		
		
		
		
		
		
		
		
		
		
		
		
		
		
		
		
		
		
		<path
   enable-background="new    "
   d="m 653.2,843.2 c -6.4,-7.3 -12.5,-15 -18.2,-23 -2.8,0.5 -5.7,1.2 -8.5,1.9 9.3,13.2 19.6,25.6 30.7,37.3 2.6,-1.2 5.3,-2.2 7.9,-3.3 -4.1,-4.2 -8,-8.5 -11.9,-12.9 z"
   id="path852"
   inkscape:connector-curvature="0"
   style="opacity:0.03999999;fill:#ffffff" />
		<path
   enable-background="new    "
   d="m 1295.5,776.4 c -1.7,7.9 -4.4,15.6 -8,22.8 3.7,-7.2 6.5,-14.9 8.2,-22.8 z"
   id="path854"
   inkscape:connector-curvature="0"
   style="opacity:0.03999999;fill:#ffffff" />
		<path
   enable-background="new    "
   d="m 1108.5,923.4 c -41.6,15.3 -85,24.9 -129.1,28.6 -20.5,1.7 -40.2,2.6 -58.5,2.6 -38.5,0 -72.8,-3.8 -101.8,-11.3 -55.4,-14.4 -103,-39.7 -141.8,-75.5 -2.6,1.2 -5.2,2.5 -7.7,3.8 37.3,34.9 85.6,63.3 147.5,79.4 30.8,8 65.8,11.6 103.8,11.6 19,0 38.8,-0.9 59.2,-2.6 57.8,-4.8 114.3,-19.7 167,-44 -12.7,3.7 -25.6,6.2 -38.6,7.4 z"
   id="path856"
   inkscape:connector-curvature="0"
   style="opacity:0.03999999;fill:#ffffff" />
		<path
   enable-background="new    "
   d="m 616.4,807 c 2.9,-0.5 5.8,-1 8.6,-1.4 C 603.9,772.5 588.2,736.2 578.8,698.1 563,635.5 557.9,589.9 562.2,550.3 c 4.1,-37.6 16.9,-68.6 34.9,-103.6 14,-27.3 62.8,-69.5 118.8,-102.8 40.5,-24.1 120.5,-64.7 201.2,-65.8 3.1,0 6.2,-0.1 9.2,-0.1 60.3,0 115.4,8.6 163.7,25.7 38.8,13.7 72.9,32.8 98.7,55.4 22.2,19.4 45.2,40.5 61.8,66.9 17.9,28.4 26.6,59.7 27.5,98.3 1,45.1 -3.9,85.5 -8.7,115.8 -1.3,22.1 -2.5,41.5 -1.8,55.1 0.1,1.7 0.8,3.3 2.1,4.4 2.5,6.4 9,13.4 15.1,23.8 l 0.8,-0.5 c -7.5,-13.2 -15.8,-20.9 -16.4,-28.7 -1,-13 19,-83 17,-170 -2,-87 -44,-129 -92,-171 -46.9,-41 -134,-83.1 -267.7,-83.1 -3.1,0 -6.2,0 -9.3,0.1 -139,2 -299.2,118.9 -327,173 -37,72 -52,126 -19,257 9.3,37.6 24.6,73.7 45.3,106.8 z"
   id="path858"
   inkscape:connector-curvature="0"
   style="opacity:0.03999999;fill:#ffffff" />
		<path
   enable-background="new    "
   d="m 1297,758 c -1,-8.4 -3.1,-16.7 -6.3,-24.6 l -0.8,0.4 c 3.4,8 5.6,16.5 6.5,25.2 0.2,1.8 0.3,3.7 0.3,5.5 l 0.5,-0.1 c 0.1,-2.1 0,-4.3 -0.2,-6.4 z"
   id="path860"
   inkscape:connector-curvature="0"
   style="opacity:0.03999999;fill:#ffffff" />
		
		
		
		
		
		
	</g><g
   id="whiskers"
   transform="matrix(2.9683834,0,0,2.9683834,-676.20304,505.50114)">
		<g
   id="g885">
			<g
   id="Front_Whiskers">
				<path
   class="main-body-fill"
   d="m 667,806 c -42,-9 -112,14 -128,40 -10,14 0,23 11,15 11,-8 65.7,-48 113.7,-42 8,1 8.6,-10.7 3.3,-13 z"
   id="path875"
   inkscape:connector-curvature="0"
   style="fill:#282828" />
				<path
   class="main-body-fill"
   d="m 675,852.3 c -50.7,18 -98,52.7 -108.7,80.7 -4.7,11.3 6.7,21.3 16.7,11.3 10,-10 47.3,-56 97.3,-78 7.4,-2.6 1.4,-15.3 -5.3,-14 z"
   id="path877"
   inkscape:connector-curvature="0"
   style="fill:#282828" />
			</g>
			<g
   id="Front_Whiskers_Shadow">
				<path
   enable-background="new    "
   d="m 664.3,815.7 c -7.8,0.5 -15.6,0.1 -23.4,0.3 -22.7,0.9 -44.8,7.5 -64.2,19.4 -7.8,4.8 -15.2,10.4 -23.8,13.4 -3.7,1.3 -7.9,2.1 -11.3,0.3 -1.2,-0.7 -2.2,-1.7 -2.8,-2.9 -9.7,13.9 0.2,22.8 11.2,14.8 11,-8 65.7,-48 113.7,-42 3.8,0.5 6,-1.9 6.6,-4.8 -1.9,0.9 -3.9,1.5 -6,1.5 z"
   id="path880"
   inkscape:connector-curvature="0"
   style="opacity:0.3;fill:#091426" />
				<path
   enable-background="new    "
   d="m 583,944.3 c 10,-10 47.3,-56 97.3,-78 3.4,-1.2 3.9,-4.6 2.9,-7.7 -2.2,3 -6.1,5.1 -9.7,6.6 -12.4,5.4 -25.3,10.2 -36.5,17.8 -15.1,10.2 -26.3,25.1 -39.2,38 -6.2,6.3 -13.3,12.4 -22.1,13.8 -2.3,0.4 -5.1,0.2 -6.6,-1.6 -0.8,-1 -1.3,-2.2 -1.5,-3.4 -0.5,1.1 -1,2.2 -1.4,3.2 -4.5,11.3 6.8,21.3 16.8,11.3 z"
   id="path882"
   inkscape:connector-curvature="0"
   style="opacity:0.3;fill:#091426" />
			</g>
		</g>
		<g
   id="g897">
			<g
   id="Back_Whiskers">
				<path
   class="main-body-fill"
   d="m 1391.9,778 c -18.7,-14.5 -68.6,-17.3 -94.7,-13.6 -0.1,4 -0.6,8.1 -1.5,12 33.4,-1.4 76.9,10.9 85.2,14.6 9,4 15,-2 11,-13 z"
   id="path887"
   inkscape:connector-curvature="0"
   style="fill:#282828" />
				<path
   class="main-body-fill"
   d="m 1371.9,701 c -11.6,-2.7 -57.7,5 -86.6,21.7 2,3.4 3.7,7 5.3,10.7 25.4,-12.8 64.2,-15.4 79.3,-14.4 16,1 15,-15 2,-18 z"
   id="path889"
   inkscape:connector-curvature="0"
   style="fill:#282828" />
			</g>
			<g
   id="Back_Whiskers_Shadow">
				<path
   enable-background="new    "
   d="m 1391.9,778 c -0.2,-0.2 -0.4,-0.3 -0.6,-0.5 -1.3,1.6 -2.9,2.9 -4.7,3.8 -6.3,3.1 -13.8,2.2 -20.8,1 -17.1,-2.9 -33.9,-7.1 -50.4,-12.4 -0.8,-0.2 -1.5,-0.5 -2.2,-1 -2.4,-1.9 -1.6,-3.9 -0.2,-5.8 -0.7,0 -1.3,0 -2,0.1 v 0 c -0.9,0 -1.8,0.1 -2.8,0.2 h -0.5 l -2.3,0.2 h -0.3 c -0.9,0.1 -1.8,0.2 -2.6,0.2 h -0.2 l -2.3,0.2 h -0.3 l -2.4,0.3 c -0.1,4 -0.6,8.1 -1.5,12 1,0 2.1,-0.1 3.1,-0.1 h 0.1 c 1,0 2.1,0 3.1,0 h 0.1 c 6.6,0.1 13.2,0.5 19.8,1.3 v 0 c 7.8,0.9 15.5,2.2 22.7,3.6 v 0 l 3,0.6 v 0 c 4,0.8 7.8,1.7 11.4,2.6 v 0 l 2.5,0.6 h 0.1 l 2.3,0.6 h 0.2 l 2.2,0.6 h 0.2 l 2.1,0.6 h 0.1 c 1.4,0.4 2.7,0.8 3.9,1.2 h 0.1 l 1.7,0.5 h 0.2 l 1.5,0.5 0.2,0.1 1.3,0.4 0.2,0.1 1.1,0.4 h 0.1 l 1,0.4 h 0.1 l 0.8,0.3 c 8.9,4.4 14.9,-1.6 10.9,-12.6 z"
   id="path892"
   inkscape:connector-curvature="0"
   style="opacity:0.3;fill:#091426" />
				<path
   enable-background="new    "
   d="m 1371.6,719 h 0.9 0.4 l 0.9,-0.1 h 0.3 l 1,-0.2 0.2,-0.1 c 0.3,-0.1 0.5,-0.1 0.8,-0.2 l 0.3,-0.1 c 0.2,-0.1 0.4,-0.1 0.6,-0.2 l 0.3,-0.1 c 0.2,-0.1 0.5,-0.2 0.7,-0.3 h 0.1 c 0.2,-0.1 0.5,-0.3 0.7,-0.5 l 0.2,-0.2 c 0.2,-0.1 0.3,-0.2 0.4,-0.4 l 0.2,-0.2 c 0.1,-0.1 0.3,-0.3 0.4,-0.4 l 0.2,-0.2 c 0.2,-0.2 0.3,-0.4 0.4,-0.6 l 0.1,-0.1 c 0.1,-0.2 0.2,-0.3 0.3,-0.5 0,-0.1 0.1,-0.1 0.1,-0.2 0.1,-0.1 0.1,-0.3 0.2,-0.5 l 0.1,-0.2 c 0.1,-0.2 0.1,-0.3 0.2,-0.5 0.1,-0.2 0,-0.1 0,-0.2 0.1,-0.2 0.1,-0.5 0.1,-0.7 0,-0.1 0,-0.1 0,-0.2 0,-0.2 0,-0.3 0,-0.5 0,-0.1 0,-0.2 0,-0.3 0,-0.2 0,-0.3 0,-0.5 0,-0.2 0,-0.2 0,-0.2 0,0 0,-0.5 -0.1,-0.7 v -0.1 c 0,-0.2 -0.1,-0.4 -0.1,-0.6 0,-0.2 0,-0.2 -0.1,-0.3 -0.1,-0.1 -0.1,-0.3 -0.2,-0.5 0,-0.1 -0.1,-0.2 -0.1,-0.3 -0.1,-0.2 -0.1,-0.3 -0.2,-0.5 0,-0.1 -0.1,-0.2 -0.1,-0.2 0,0 -0.2,-0.5 -0.4,-0.7 0,-0.1 -0.1,-0.1 -0.1,-0.2 l -0.3,-0.5 -0.2,-0.3 -0.3,-0.4 c -0.1,-0.1 -0.1,-0.2 -0.2,-0.2 -0.1,0 -0.3,-0.3 -0.5,-0.5 l -0.1,-0.1 c -2.1,2.1 -4.5,3.9 -7.1,5.4 -6.2,3.5 -13.3,5.3 -20.3,6.6 -14.6,2.8 -29.5,3.9 -44.3,3.3 -1.3,0 -2.5,-0.2 -3.7,-0.6 -1.5,-0.7 -2.7,-2 -3.2,-3.6 v 0 c -1.1,0.5 -2.2,0.9 -3.2,1.4 l -1.1,0.5 c -0.7,0.3 -1.3,0.6 -2,0.9 l -1.3,0.7 -1.7,0.8 -1.4,0.7 -1.6,0.8 -1.4,0.8 -0.8,0.5 c 2,3.4 3.7,7 5.3,10.7 v 0 c 0.6,-0.3 1.2,-0.6 1.8,-0.9 l 0.7,-0.3 c 0.6,-0.3 1.2,-0.5 1.7,-0.8 l 0.8,-0.4 c 0.6,-0.2 1.1,-0.5 1.7,-0.7 l 0.9,-0.4 c 0.6,-0.2 1.1,-0.4 1.7,-0.7 l 1,-0.4 1.7,-0.6 1,-0.3 1.8,-0.6 1,-0.3 1.8,-0.5 1.1,-0.3 1.8,-0.5 1.1,-0.3 1.9,-0.5 1,-0.3 1.8,-0.4 1,-0.2 c 0.6,-0.2 1.2,-0.3 1.9,-0.4 l 1,-0.2 1.9,-0.4 0.9,-0.2 2,-0.4 0.7,-0.1 c 0.7,-0.1 1.4,-0.3 2.2,-0.4 h 0.1 c 2.6,-0.4 5.2,-0.8 7.7,-1.2 l 0.6,-0.1 1.8,-0.2 1,-0.1 1.7,-0.2 1.1,-0.1 1.6,-0.2 1.1,-0.1 1.5,-0.1 1.2,-0.1 1.4,-0.1 1.2,-0.1 c 0.4,0 0.9,-0.1 1.3,-0.1 l 1.2,-0.1 1.2,-0.1 1.2,-0.1 h 1.2 1.2 1.1 1.1 1 4 1.1 0.7 1.1 0.6 l 1.5,0.1 c 0.5,0 0.9,0 1.3,0 z"
   id="path894"
   inkscape:connector-curvature="0"
   style="opacity:0.3;fill:#091426" />
			</g>
		</g>
	</g><g
   id="ears"
   transform="matrix(2.9683834,0,0,2.9683834,-676.20304,505.50114)">
		<g
   id="g908">
			<g
   id="Back_Ear">
				<path
   class="main-body-fill"
   d="m 994,274 c 25,7 66,42 80,45 14,3 15.7,-4.7 15.7,-4.7 27,3 79.3,32.7 93.3,45.7 7,8 15,14 15,-2 0,-16 6,-137 -27,-165 -39.4,-33.5 -156,45 -177,81 z"
   id="path900"
   inkscape:connector-curvature="0"
   style="fill:#282828" />
			</g>
			<g
   id="Back_Ear_Shadow">
				<path
   enable-background="new    "
   d="m 1084.6,317.8 c -2.1,0.1 -4.2,0.1 -6.2,-0.2 -11.1,-1.7 -18.8,-12.1 -23.1,-22.5 -10.2,-24.2 -4.5,-57.4 7.9,-80.4 -31.8,19.2 -59.8,43.5 -69.1,59.4 25,7 66,42 80,45 4.6,0.9 8,0.1 10.5,-1.3 z"
   id="path903"
   inkscape:connector-curvature="0"
   style="opacity:0.3;fill:#091426" />
				<path
   enable-background="new    "
   d="m 1095.8,319 c -1.8,-0.2 -3.1,-1.9 -2.8,-3.7 0.1,-0.6 0.3,-1.2 0.7,-1.6 8.5,-10.4 20.1,-37.9 24,-47.3 4.7,-11.3 20,-47.3 26.7,-52.7 6.7,-5.4 13.3,-6.7 17.3,-6 4,0.7 9.3,7.3 12,18.7 2.7,11.4 10.7,70 11.3,82 0.6,12 7.3,37.3 3.3,39.3 -4,2 -16.8,-9.7 -26,-14.7 -8.7,-4.7 -32.7,-14 -46,-15.3 -6.4,-0.7 -15,2 -20.5,1.3 z"
   id="path905"
   inkscape:connector-curvature="0"
   style="opacity:0.3;fill:#091426" />
			</g>
		</g>
		<g
   id="g918">
			<g
   id="Front_Ear">
				<path
   class="main-body-fill"
   d="m 588,462 c -10,-102 58,-248 138,-264 31,-6.2 107,76 121,109 6,14 -20,5 -52,14 -32,9 -86,48 -88,57 -2,9 6,46 -2,56 -8,10 -47,4.7 -69.3,7 -21.8,2.3 -32.7,10 -47.7,21 z"
   id="path910"
   inkscape:connector-curvature="0"
   style="fill:#282828" />
			</g>
			<g
   id="Front_Ear_Shadow">
				<path
   enable-background="new    "
   d="m 639.2,341.9 c -4.8,-23.3 -4.2,-47.3 -0.8,-70.9 -34.9,55.1 -56.3,130.7 -50.4,191 15,-11 25.9,-18.7 47.7,-21 4.4,-0.5 9.4,-0.6 14.7,-0.7 2.9,-3.3 5.6,-6.7 8.2,-10.2 5.5,-7.3 13,-12.9 20.6,-16.9 -21.2,-17.9 -34.4,-44.1 -40,-71.3 z"
   id="path913"
   inkscape:connector-curvature="0"
   style="opacity:0.3;fill:#091426" />
				<path
   enable-background="new    "
   d="m 847.5,312.1 c -3.2,0.7 -7.1,-0.9 -10.4,-2.4 -8.1,-3.8 -16.8,-6.5 -25.6,-8 -1.4,-0.1 -2.8,-0.6 -4,-1.3 -1,-0.8 -1.8,-1.8 -2.4,-3 -13.2,-22.3 -29.8,-42.4 -49.1,-59.8 -9.2,-8.3 -20.8,-16.4 -33,-14.1 -10.3,1.9 -17.9,11 -22.7,20.4 -6,11.8 -9.2,24.8 -11.8,37.8 -6.7,33 -10.4,66.5 -11.1,100.2 -0.1,3.1 -0.1,6.2 0.9,9.2 1,3 3.2,5.6 6.2,6.3 8.1,1.9 16.4,-5.4 22.2,-10.7 -0.3,-2.9 -0.2,-5.8 0.2,-8.7 2,-9 56,-48 88,-57 27,-7.6 49.7,-2.4 52.6,-8.9 z"
   id="path915"
   inkscape:connector-curvature="0"
   style="opacity:0.3;fill:#091426" />
			</g>
		</g>
	</g><path
   d="m 1864.4364,2632.3479 c 45.1194,224.1129 329.4907,207.7869 282.8869,-114.8764 -137.1392,53.1341 -266.5609,102.7061 -282.8869,114.8764 z"
   id="path937"
   inkscape:connector-curvature="0"
   style="fill:#d9e9e6;stroke-width:2.96838331" /><path
   d="m 1864.4364,2632.3479 c 11.2798,55.5089 36.808,96.1756 68.8665,121.11 -4.7494,-12.4671 -57.5867,-65.898 -20.7787,-115.1732 28.1997,-37.6985 167.4168,-87.8642 237.7674,-98.2535 -0.5936,-7.4209 -1.7807,-14.8419 -2.6714,-22.5597 -137.4361,53.1341 -266.8578,102.7061 -283.1838,114.8764 z"
   id="path939"
   inkscape:connector-curvature="0"
   style="fill:#c6d9d5;stroke-width:2.96838331" /><path
   d="m 2845.4872,2496.6928 c 1.4839,42.1509 -5.64,78.6621 -18.4041,108.3461 -55.8055,17.8102 -123.7814,41.2604 -173.6506,80.4432 -41.5572,-23.4504 -73.9125,-78.6622 -74.5064,-170.3852 123.1882,5.3427 210.7554,-9.499 266.5611,-18.4041 z"
   id="path941"
   inkscape:connector-curvature="0"
   style="fill:#d9e9e6;stroke-width:2.96838331" /><path
   d="m 2845.4872,2496.6928 c 1.4839,42.1509 -5.64,78.6621 -18.4041,108.3461 11.28,-34.1365 11.5768,-44.2289 3.5622,-60.8518 -17.2168,-37.4019 -120.5163,-0.2971 -250.8285,-9.2022 -0.5935,-7.421 -0.5935,-11.5768 -0.5935,-19.888 122.891,5.3427 210.4582,-9.499 266.2639,-18.4041 z"
   id="path943"
   inkscape:connector-curvature="0"
   style="fill:#c6d9d5;stroke-width:2.96838331" /><path
   d="m 2739.2191,2503.8169 c 0.2967,80.7401 -29.6838,146.0444 -67.6793,146.638 -36.2141,0.5939 -67.0855,-57.5867 -72.1318,-132.6865 -0.2966,-5.3434 139.8111,-15.4358 139.8111,-13.9515 z"
   class="eye-fill-color"
   id="path945"
   inkscape:connector-curvature="0"
   style="fill:#282828;fill-opacity:1;stroke-width:2.96838331" /><path
   d="m 2725.8612,2506.7852 c -0.2967,34.1363 -6.2335,65.8984 -16.9198,90.2389 -10.0924,23.1535 -23.1534,37.105 -36.2143,37.9953 h -1.1873 c -25.231,0.5938 -54.0245,-48.6814 -58.4772,-121.4069 m -13.6546,0.5937 c 4.4529,75.9908 35.6209,135.0614 72.1318,134.4678 h 2.078 c 36.5112,-2.9683 65.0077,-65.3045 65.6013,-142.7793 0,-2.6712 -140.1077,3.5622 -139.8111,8.3115 z"
   id="path947"
   inkscape:connector-curvature="0"
   style="opacity:0.16000001;stroke-width:2.96838331" /><path
   d="m 2048.1793,2587.2285 c 8.9051,86.38 -16.9197,159.6991 -57.2898,163.8547 -39.4795,4.1557 -78.3653,-58.774 -88.4578,-141.5919 -0.2969,-2.3746 99.1441,-43.0414 140.4046,-57.2896 2.3747,11.5764 4.1557,23.1532 5.343,35.0268 z"
   class="eye-fill-color"
   id="path949"
   inkscape:connector-curvature="0"
   style="fill:#282828;fill-opacity:1;stroke-width:2.96838331" /><path
   d="m 2030.369,2562.5911 c 1.4842,8.3113 2.6716,16.9196 3.5622,25.8247 3.8589,38.8858 0.8904,76.2876 -8.9053,105.0809 -8.6083,25.231 -21.0755,40.9636 -34.4332,43.0415 l -1.4842,0.2968 c -27.6059,2.9683 -63.8202,-50.1655 -73.6159,-131.2025 l -0.5937,-4.7496 m -12.1704,11.8738 c 10.9831,81.0367 49.2752,142.1855 88.161,138.0297 l 2.3748,-0.2966 c 39.1826,-6.5307 63.8201,-78.6625 55.2119,-163.5582 -1.1874,-10.9831 -2.6716,-21.966 -5.0463,-32.3553 -53.4309,21.0754 -141.2951,54.915 -140.7014,58.1804 z"
   id="path951"
   inkscape:connector-curvature="0"
   style="opacity:0.16000001;stroke-width:2.96838331" /><path
   d="m 2534.1037,2518.6591 c 176.0253,8.3112 315.5393,-13.358 379.9532,-34.7304 -84.5992,11.5766 -340.4737,27.3094 -379.9532,34.7304 z"
   class="face-accent-fill-color"
   id="path953"
   inkscape:connector-curvature="0"
   style="fill:#453e2d;stroke-width:2.96838331" /><path
   d="m 2870.7185,2597.6179 c -107.7525,1.1871 -218.4731,69.7568 -249.9379,115.7669 81.9274,-58.4772 172.4631,-95.2852 249.9379,-115.7669 z"
   class="face-accent-fill-color"
   id="path955"
   inkscape:connector-curvature="0"
   style="fill:#453e2d;stroke-width:2.96838331" /><path
   d="m 2187.9903,2502.6296 c -180.181,48.0877 -314.0551,113.0954 -371.9386,154.0592 81.6306,-37.9953 334.5368,-134.468 371.9386,-154.0592 z"
   class="face-accent-fill-color"
   id="path957"
   inkscape:connector-curvature="0"
   style="fill:#453e2d;stroke-width:2.96838331" /><path
   d="m 2816.694,2255.3633 c -67.3827,-41.5573 -171.5727,-18.4041 -207.4902,25.8248 83.4117,-57.5865 159.699,-44.2289 207.4902,-25.8248 z"
   class="face-accent-fill-color"
   id="path959"
   inkscape:connector-curvature="0"
   style="fill:#453e2d;stroke-width:2.96838331" /><path
   d="m 1992.3738,2294.843 c -73.9128,-5.6402 -155.2466,45.4162 -172.1663,91.4261 43.0415,-51.3533 110.4239,-84.5991 172.1663,-91.4261 z"
   class="face-accent-fill-color"
   id="path961"
   inkscape:connector-curvature="0"
   style="fill:#453e2d;stroke-width:2.96838331" /><circle
   transform="rotate(-12.257228)"
   cx="1444.2933"
   cy="2996.406"
   id="ellipse963"
   r="15.435523"
   style="fill:#ffffff;stroke-width:2.9683702" /><ellipse
   transform="rotate(-0.90997624)"
   cx="2695.1169"
   cy="2598.3513"
   rx="15.435995"
   ry="17.217075"
   id="ellipse965"
   style="fill:#ffffff;stroke-width:2.96846128" /><g
   id="mouths-holder"
   data-cat="mouths"
   transform="matrix(2.9683834,0,0,2.9683834,-676.20304,505.50114)">
		<g
   id="g980">
			<path
   class="face-accent-fill-color"
   d="m 937.7,806.3 c -2,1.6 -4.3,2.8 -6.7,3.8 -2.4,1 -4.9,1.7 -7.4,2.2 -2.5,0.5 -5.1,0.8 -7.6,0.8 -2.6,0 -5.1,-0.2 -7.6,-0.8 2.5,-0.6 5,-1.1 7.4,-1.5 l 7.3,-1.4 c 2.4,-0.5 4.8,-1 7.2,-1.5 2.4,-0.5 4.8,-1.1 7.4,-1.6 z"
   id="path970"
   inkscape:connector-curvature="0"
   style="fill:#453e2d" />
			<path
   class="face-accent-fill-color"
   d="m 929,808.8 c 7.9,6.2 16.6,11.4 25.7,15.6 9.1,4.2 18.7,7.5 28.5,9.9 9.8,2.4 19.8,3.8 29.8,4.3 10,0.4 20.1,-0.2 30,-1.8 9.9,-1.5 19.6,-4.3 29,-8 9.4,-3.6 18.4,-8.2 27,-13.6 2.2,-1.3 4.2,-2.8 6.3,-4.2 1.1,-0.7 2.1,-1.4 3.1,-2.2 l 3.1,-2.3 c 4,-3 7.9,-6.3 11.7,-9.7 1.9,-1.7 3.7,-3.5 5.5,-5.2 l 2.6,-2.7 1.3,-1.4 1.3,-1.4 c 0.8,-1 1.7,-1.9 2.5,-2.9 l 2.3,-3 c 0.8,-1 1.4,-2.1 2.2,-3.1 0.4,-0.5 0.7,-1.1 1,-1.6 l 0.9,-1.6 1.7,0.7 c -2.2,4.9 -5.2,9.1 -8.4,13.2 l -1.2,1.5 -1.3,1.5 -2.5,2.9 c -1.8,1.9 -3.5,3.8 -5.4,5.6 -3.7,3.6 -7.6,7.1 -11.6,10.4 l -3.1,2.4 c -1,0.8 -2,1.6 -3.1,2.4 -2.1,1.5 -4.2,3.1 -6.4,4.5 l -6.6,4.2 -6.8,3.8 c -1.1,0.7 -2.3,1.2 -3.5,1.8 l -3.5,1.7 c -2.3,1.2 -4.8,2.1 -7.2,3.1 -9.7,3.9 -19.7,7 -30.1,8.7 -10.3,1.7 -20.8,2.5 -31.2,2 -10.4,-0.5 -20.8,-2.1 -30.9,-4.7 -10.1,-2.6 -20,-6.2 -29.3,-10.8 -9.3,-4.7 -18.3,-10.2 -26.2,-17.1 z"
   id="path972"
   inkscape:connector-curvature="0"
   style="fill:#453e2d" />
			<path
   enable-background="new    "
   d="m 928.2,809.8 c 2.5,1 4.7,2.2 7.2,3.1 l 3.5,1.5 c 1.2,0.5 2.4,0.9 3.6,1.3 1.2,0.4 2.3,0.9 3.5,1.3 l 3.6,1.2 c 2.3,0.8 4.7,1.5 7.1,2.2 9.5,2.7 19,4.8 28.5,6.2 l 3.5,0.5 3.6,0.3 c 1.2,0.1 2.4,0.3 3.5,0.4 1.2,0.2 2.4,0.2 3.5,0.3 l 3.5,0.2 c 0.6,0 1.2,0.1 1.8,0.1 h 1.8 c 2.4,0 4.7,0.1 7,0.1 2.3,-0.1 4.7,-0.1 7,-0.2 1.2,0 2.3,-0.1 3.5,-0.2 l 3.5,-0.3 c 2.3,-0.1 4.6,-0.4 6.9,-0.7 l 3.5,-0.4 c 1.2,-0.1 2.3,-0.4 3.4,-0.6 2.3,-0.4 4.6,-0.7 6.9,-1.2 2.3,-0.5 4.5,-1.1 6.8,-1.6 1.1,-0.2 2.3,-0.6 3.4,-0.9 l 3.4,-1 c 1.1,-0.3 2.2,-0.6 3.4,-1 1.1,-0.4 2.2,-0.8 3.3,-1.2 8.9,-3.1 17.6,-6.8 26.2,-11.2 8.6,-4.4 17,-9.5 25.2,-15 2.1,-1.4 4,-2.9 6.1,-4.3 l 3,-2.3 1.5,-1.1 1.5,-1.2 3,-2.4 2.9,-2.5 c 1,-0.8 1.9,-1.7 2.8,-2.6 0.5,-0.4 0.9,-0.9 1.3,-1.4 l 1.3,-1.4 1.4,0.6 -0.9,1.8 c -0.3,0.6 -0.6,1.2 -0.9,1.7 -0.7,1.1 -1.4,2.2 -2.1,3.3 l -2.3,3.2 c -0.8,1 -1.6,2 -2.4,3 l -1.2,1.5 -1.3,1.4 -2.6,2.9 c -1.8,1.8 -3.6,3.7 -5.4,5.5 -7.5,7.1 -15.6,13.5 -24.2,19.2 -8.6,5.7 -17.8,10.5 -27.4,14.4 -9.6,3.8 -19.6,6.9 -29.8,8.5 -10.2,1.6 -20.6,2.3 -30.9,1.8 -10.3,-0.6 -20.6,-2.1 -30.6,-4.7 -10,-2.5 -19.8,-6 -29.1,-10.5 -9.3,-4.6 -18.1,-10.1 -26,-16.8 z"
   id="path974"
   inkscape:connector-curvature="0"
   style="opacity:0.02999998" />
			<path
   enable-background="new    "
   d="m 928.5,809.4 c 7.7,6.5 16.5,11.8 25.7,16.2 9.2,4.4 18.8,7.8 28.7,10.3 9.9,2.5 20,3.9 30.1,4.4 10.2,0.4 20.4,-0.3 30.4,-1.9 10.1,-1.6 19.8,-4.5 29.3,-8.3 9.4,-3.8 18.5,-8.4 27,-14 8.5,-5.6 16.6,-11.9 24,-18.9 1.9,-1.7 3.6,-3.6 5.4,-5.4 l 2.6,-2.8 1.3,-1.4 1.2,-1.5 c 0.8,-1 1.6,-1.9 2.4,-2.9 l 2.2,-3 c 0.7,-1 1.4,-2.1 2.1,-3.1 0.4,-0.5 0.6,-1.1 0.9,-1.6 l 0.9,-1.6 2.3,1 -0.7,1.9 c -0.2,0.6 -0.5,1.3 -0.8,1.9 -0.6,1.2 -1.2,2.4 -1.8,3.6 l -2,3.4 c -0.7,1.1 -1.5,2.2 -2.2,3.3 l -1.1,1.6 -1.2,1.6 -2.4,3.2 c -1.7,2 -3.3,4.1 -5.1,6 -3.6,3.9 -7.3,7.7 -11.2,11.3 l -3,2.6 c -1,0.9 -2,1.7 -3.1,2.5 -2.1,1.6 -4.2,3.3 -6.3,4.9 l -6.6,4.6 c -2.3,1.4 -4.5,2.8 -6.8,4.2 -1.1,0.7 -2.3,1.3 -3.5,2 l -3.6,1.9 c -2.3,1.3 -4.8,2.4 -7.3,3.5 -9.9,4.4 -20.3,7.9 -31,9.8 l -2,0.4 c -0.7,0.1 -1.3,0.3 -2,0.3 l -4.1,0.5 c -2.7,0.4 -5.4,0.8 -8.1,0.9 l -4.1,0.3 c -1.4,0.1 -2.7,0.2 -4.1,0.2 h -8.2 c -2.7,-0.1 -5.5,-0.3 -8.2,-0.5 l -2,-0.2 -2,-0.3 -4.1,-0.5 c -1.3,-0.2 -2.7,-0.3 -4,-0.6 l -4,-0.8 -4,-0.8 c -1.3,-0.3 -2.6,-0.7 -4,-1 -10.5,-2.7 -20.7,-7 -29.9,-12.8 -2.3,-1.5 -4.6,-2.9 -6.7,-4.7 -2.2,-1.6 -4.3,-3.4 -6.2,-5.3 -1,-1 -2,-1.8 -2.9,-2.9 -0.9,-1 -1.8,-2 -2.7,-3.1 -0.4,-0.5 -0.9,-1 -1.3,-1.6 -0.4,-0.6 -0.8,-1.1 -1.2,-1.7 -0.8,-1.1 -1.6,-2.2 -2.3,-3.4 z"
   id="path976"
   inkscape:connector-curvature="0"
   style="opacity:0.02999998" />
			<path
   class="face-accent-fill-color"
   d="m 1130.3,774 c 2.7,0.3 5.3,0.1 7.9,-0.1 2.6,-0.3 5.2,-0.6 7.9,-0.9 2.6,-0.3 5.3,-0.5 8,-0.6 2.7,-0.1 5.5,-0.1 8.2,0.6 l -7.9,1.7 c -2.6,0.5 -5.3,1 -8,1.3 -2.7,0.3 -5.4,0.4 -8.2,0.2 -2.6,-0.2 -5.5,-0.7 -7.9,-2.2 z"
   id="path978"
   inkscape:connector-curvature="0"
   style="fill:#453e2d" />
		</g>
	</g><g
   id="_x32_6_x5F_Hair_x5F_AfroTight_2_"
   transform="matrix(2.9683834,0,0,2.9683834,-676.20304,505.50114)"
   style="fill:#282828;fill-opacity:1">
				<g
   id="g1678"
   style="fill:#282828;fill-opacity:1">
					<g
   id="g1672"
   style="fill:#282828;fill-opacity:1">
						<path
   d="m 1428.9,456.4 c -1.6,2.6 -4.6,5.3 -7.9,6.7 -0.5,2.1 -1.3,4.2 -2.7,6.2 -2.4,3.5 -6.3,6.6 -10.2,9.2 2.9,4.3 7.5,7.1 5.6,13.6 -0.8,2.8 -2.8,5 -5.2,6.5 -0.6,0.4 -1.3,0.8 -2,1.2 0.6,5.6 0.4,11.1 -2.1,16.3 -1.4,2.8 -3.3,5.4 -5.9,7.2 -1,0.7 -2,1.2 -3.1,1.8 -0.3,0.1 -1.2,0.6 -2.1,1.3 -0.2,1 0.3,1.5 1.7,2.2 2.4,1.2 4.9,1.7 7.2,3.1 4.2,2.6 7.6,6.4 9.8,10.7 1.6,3.3 3.8,13.1 2.1,19.1 0,0.9 -0.1,1.7 -0.1,2.6 0,1.5 0.3,3.3 -0.3,4.7 -0.8,2 -2.4,2.3 -4,1.9 -0.4,0 -0.7,0 -1.1,-0.2 -0.3,1.9 -0.9,3.8 -1.6,5.4 -2.2,5 -6.4,7.5 -10.1,11.2 -0.2,0.2 -0.4,0.2 -0.6,0.2 -0.1,0.2 -0.2,0.5 -0.3,0.8 -0.3,0.6 -1.2,0.2 -1,-0.4 0.7,-3.1 -3,-5.9 -5.8,-5.3 -2.7,0.5 -4.3,3 -4.7,5.5 -0.4,2.4 0.3,5.1 1.6,7.1 0.1,0.2 0.2,0.3 0.3,0.5 2.7,2.2 4.9,5.4 5,8.5 0.1,2.5 -1,4.1 -2.9,5.7 -2.8,2.3 -3.2,5.2 -4.8,8.2 -0.1,0.8 -0.5,1.5 -1.4,1.9 -2.5,1.2 -5,3.2 -7.9,3 -3.1,-0.2 -5.2,-3.3 -8.2,-2.5 -5.1,1.3 -3.5,7 -4.9,10.6 -1.2,3.2 -5.2,3.3 -6.5,6.3 -0.1,1 0.1,2 0.3,3.1 0.6,2.6 2.6,5.9 1.8,8.5 -0.2,0.5 -0.8,0.7 -1.1,0.3 -0.5,-0.5 -0.9,-1.2 -1.3,-1.8 -0.2,-0.1 -0.4,-0.2 -0.7,-0.3 -0.7,-0.3 -1,-0.4 -1.7,0 -0.8,0.5 -1.8,1.4 -2.1,2.4 0.3,4.6 -0.3,9.3 -2.9,12.2 -1.8,2 -4,3.1 -6.3,3.7 -2,1.4 -4.2,1.8 -6.7,2.2 -1.3,0.2 -2.6,1.2 -3.9,1.8 0.4,2.6 0.6,5.4 0.8,8.1 0.1,1 0.1,1.9 0,2.8 v 0 c 0.1,2 0,3.9 -0.7,5.6 -0.8,1.8 -2.2,2.9 -3.7,4 -0.1,0 -0.1,0.1 -0.2,0.1 -4.4,6.5 -9.8,12.6 -17.7,14.3 -1.1,2.8 -2.8,5.4 -4.7,6.9 -6.1,5.1 -11.3,9.6 -14.2,17.3 -0.2,0.7 -0.8,0.8 -1.3,0.7 0,0 0,0 0,0 -0.1,0 -0.1,0 -0.1,-0.1 -0.1,-0.1 -0.2,-0.2 -0.4,-0.5 0,0 0,0 0,0 -0.3,-0.3 -0.6,-0.9 -1.1,-1.8 0,0 0,0 0,0 -3,-5 -12.2,-20.1 -15.6,-24.3 -4,-5 -3.5,-11.7 -2.7,-16.7 0.6,-3.9 5.2,-28.5 7,-38.4 -2.1,-3.5 -3.1,-8.4 -3.1,-11.7 0,-6 0.7,-12 1.9,-17.9 0.3,-1.4 0.6,-2.9 0.9,-4.4 -1.1,-4.5 -1.5,-9 -1,-13.5 -2.9,-0.9 -5.8,-2.3 -7.5,-4.2 -3.1,-3.5 -2.3,-8.8 -0.8,-12.8 0.6,-1.5 1.3,-3 2.2,-4.4 0.7,-1.8 1.7,-3.5 2.9,-5.2 2.2,-3.2 5.3,-6.9 8.7,-10 -6.9,-5.2 -12.2,-13.6 -12.6,-21.2 -0.3,-6.1 2.3,-12.1 6.3,-16.6 2.3,-2.6 5.6,-5.4 9.1,-7.4 -0.8,-8.2 -0.7,-16.4 -0.6,-24.6 -0.8,-0.4 -1.6,-0.9 -2.2,-1.9 -1.6,-2.4 -2.2,-5.7 -2.8,-8.5 -0.9,-3.9 -2.6,-9.5 -1.8,-14.1 -1.2,-0.7 -2.3,-1.7 -3.2,-3.2 -1.5,-2.8 -1.3,-7.2 -0.1,-10.8 -0.9,-1.5 -1.6,-3.1 -2.2,-4.6 -1.2,-3.2 -1.9,-6.6 -2.4,-10 -1.8,-0.5 -3.5,-1.4 -4.7,-2.3 -2.1,-1.6 -3.5,-3.6 -4.3,-5.8 -2.2,1 -4.5,1.8 -6.3,2.6 -8.3,3.4 -16.7,6 -25.8,5.4 -1.6,-0.1 -2.9,-1.2 -2.9,-2.9 0,-4.9 3.2,-8.6 4.9,-12.9 -1.4,0.7 -2.8,1.3 -4.1,1.9 -6.9,3 -14.2,4.8 -21.8,5.3 -2.4,0.1 -4.9,-0.2 -7.1,0.9 -1.8,0.9 -3.1,2.4 -4.9,3.3 -2.6,1.3 -5.6,1.9 -8.5,1.8 -5.2,-0.1 -9.1,-2.5 -12.7,-5.7 -1.5,0.4 -3,0.7 -4.4,1.1 -3.7,1 -7.4,2.1 -11.1,3.1 -1.7,0.5 -3.5,0.9 -5.2,1.2 0.4,1.2 0.6,2.4 0.8,3.5 0.7,4.3 -0.1,8.5 -2.5,12.2 -2.1,3.2 -4.8,6 -8.4,7.6 -2.6,1.1 -4.3,1.9 -6.1,4.1 -1.4,1.6 -2.7,3.3 -4.3,4.7 -6.2,5.3 -15.2,7.3 -23.2,6.3 -2.7,-0.3 -6.2,-1.6 -5.9,-5 0.3,-3.5 4.4,-4 6.4,-6.3 -1.5,0 -3.1,0.6 -4.5,0.5 -2.5,-0.3 -5.2,-1.1 -5.4,-3.9 -0.1,-0.1 -0.1,-0.1 -0.1,-0.2 -0.1,-0.1 -0.1,-0.3 0.1,-0.4 0.1,-0.1 0.2,-0.1 0.3,-0.2 0.3,-0.4 0.8,-0.6 1.3,-0.6 0,0 0,0 0,0 1,-0.2 2,-0.3 2.9,-0.6 2.1,-0.6 3.7,-2.4 4.9,-4.1 0.5,-0.7 1.2,-1.6 1.2,-2.5 -3.3,-2.4 -10.4,-1.2 -13.8,-0.4 -3.2,0.7 -6.1,2.1 -8.8,3.9 -1.5,2.4 -3.2,4.6 -4.7,6.4 -2.3,2.7 -4.9,4.1 -7.8,4.7 -0.3,2.5 -1.3,5.1 -2.1,7.1 -2.1,5 -5.2,9.8 -9.3,13.4 -6.7,5.8 -15.2,6.8 -21,0.8 -0.1,0 -0.2,0 -0.3,0 -2.6,0.4 -4.3,1.7 -6.4,3.2 -2.8,2.1 -6.2,4.2 -9.8,4.8 -1.8,0.3 -3.3,0.1 -5,-0.5 -2,-0.7 -3.7,-0.8 -5.8,-1.2 -1.7,-0.3 -3,-1.2 -4.5,-1.9 -2,-0.9 -4,-1.3 -6.1,-1.8 0.7,3.3 0.3,6.6 -2,9.5 -6.7,8.5 -22.3,5.3 -31.4,4.3 -11.2,-1.2 -23.6,-2.2 -32.2,-10.2 -3.5,-3.3 -7.3,-7.5 -8.5,-12.3 -0.9,-3.7 -0.1,-8.4 1.1,-12.5 -0.4,0.1 -0.9,0.3 -1.3,0.3 -1.5,0.3 -3,0.1 -4.5,0.3 0,0 0,0 0,0 -10.3,3.4 -21.2,5.3 -31.6,4 -6.8,-0.8 -13.6,-2.1 -19.8,-4.8 -3.4,-1.5 -6.5,-3.4 -9.3,-5.8 -2.4,-2 -4.8,-4.7 -7.6,-6.3 -4,3.5 -9.6,6 -13.8,7.4 -3.9,1.3 -10.3,2.7 -15.2,1.5 -0.2,2.1 -0.8,4.1 -1.9,5.7 -2.8,4 -8.5,6 -13.1,6.8 -7.5,1.2 -15.8,-4.1 -18.4,-11.3 -0.5,-0.1 -0.9,-0.2 -1.4,-0.3 0,0 -0.1,0 -0.1,0 -4.7,7.9 -11.5,14.5 -20.1,18.1 -6,2.5 -12.4,3.2 -18.8,2.4 -2.8,-0.4 -6,-0.8 -9.1,-1.6 -3.1,7 -7.8,13.4 -13.3,18.6 -3,2.8 -8.2,7 -13.4,8.6 1.8,8 -0.8,17.6 -7.1,22.5 -0.2,1.9 -0.7,3.8 -1.7,5.8 -1.2,2.4 -3.7,5.6 -6.6,7.5 0.6,1.4 1.5,2.7 2.6,4.1 1.5,1.9 3,3.8 4.1,6.1 1.4,3.2 1.8,6.8 0.3,10.1 -1.1,2.2 -4.2,4.1 -7.5,4.9 0,3.7 -0.3,7.3 0,11 0.2,2.7 0.6,5 1.8,7.4 0.8,1.5 1.7,2.9 2.1,4.6 0.7,3.1 -0.1,6.2 -1,9.1 -1,2.9 -1.6,5.4 -1.9,8.2 0.1,0.1 0.2,0.1 0.3,0.2 0.8,0.4 1.6,0.7 2.3,1.2 1.4,1 2.5,2.7 3,4.4 0.4,0.1 0.7,0.4 0.6,0.9 -1.2,6.5 -1.3,13.6 -0.3,20.1 0.8,5 0.8,9.6 -0.1,14.5 -0.8,4.3 -1.4,9.3 -4.4,12.7 -1.6,1.8 -4.1,2.9 -5.4,5 -0.3,0.4 -0.5,0.8 -0.6,1.3 0.4,1.1 0.8,2.3 1.3,3.4 2,4.3 5,3.2 8.7,4.6 3.9,1.5 5.2,6.5 5.6,10.2 0.5,5.4 -3,9.1 -4.6,14 -1,3 -1.2,6.2 -0.9,9.3 0.5,4.3 2.2,6 5.9,8.1 7.6,4.2 7.3,16.3 6,23.9 -0.6,3.7 -2.5,8 -6.4,9.2 -1.4,0.4 -2.8,0.4 -4.2,0 -1.4,2.8 -4.2,4.6 -8.6,3.9 -4.8,-0.8 -8.2,-3.5 -10.9,-6.9 -6.5,-3.8 -12,-10 -17.4,-15.1 -0.4,-0.4 -0.9,-0.8 -1.4,-1.3 -4.4,-2 -8.1,-4.6 -9.2,-10 -1.2,-5.6 0.2,-12.6 2.8,-18 -1.9,-1 -3.7,-2 -5.5,-3.4 -1.3,-0.9 -1.8,-2.5 -1,-3.9 0.1,-0.1 0.1,-0.3 0.2,-0.5 -4.3,-2.3 -7.6,-5.8 -9.4,-10.8 -1.2,-3.4 -1.5,-7.9 -0.5,-11.9 -1.2,-0.9 -1.8,-2.3 -1.6,-3.8 0.3,-2.2 1.8,-4.4 2.8,-6.3 0.5,-1 1.1,-2.1 1.7,-3.1 -4.2,-7.9 -3.1,-20 2.1,-27.1 -2.2,0 -4.3,-0.8 -6.1,-2.6 -2.6,-2.5 -3.8,-6.3 -3.7,-9.8 0.1,-4.1 2.2,-8 5.5,-10.3 1.3,-1 2.5,-1.2 4.1,-1.5 0.1,0 0.2,0 0.3,-0.1 -1.1,-2.6 -2.2,-5.2 -3.3,-7.8 -0.9,-2 -1.9,-4 -2.8,-6.1 -0.7,0.7 -1.4,1.3 -2,1.8 0.2,1 0.2,2 0.2,3.1 -0.1,1.9 0,3.9 -0.3,5.8 0,0.1 -0.2,0.1 -0.2,0 0,-0.1 0,-0.2 -0.1,-0.3 -0.2,0.2 -0.7,0.2 -0.7,-0.2 0.2,-1.8 -1,-3.3 -2,-4.7 -0.1,-0.2 -0.3,-0.4 -0.5,-0.6 -3.6,3.1 -7.6,5.8 -12.1,7.5 -2.3,0.9 -5.7,1.8 -8.4,1.1 0.2,5.5 -1.1,10.8 -6.2,13.7 -2,1.1 -4.2,1.5 -6.2,2.5 -2.5,1.1 -4.5,3 -6.5,4.8 -2.9,2.6 -5.6,5.3 -8.3,8.1 1.3,1.2 2.5,2.6 3.7,3.8 2.3,2.4 5.9,5.5 6.8,8.8 1.1,4 -1.6,8.7 -5.1,12.2 0.9,0.6 1.8,1.4 2.5,2.4 1.6,2.3 2.9,6.3 2.9,9.9 7.3,0.3 14.7,10.9 15.6,17.4 0.9,6.4 -0.8,13.2 -4.7,18.4 -1.8,2.4 -4,4.1 -6.4,5.2 0.9,1.9 2.2,3.6 2.2,5.9 0,2.1 -1.2,4.1 -2.7,5.5 -2.1,2 -4.9,2.9 -7.1,4.7 -1.8,1.5 -3,3.1 -4,5 3.5,2.7 6.4,5.8 8.5,9.9 3.5,7.1 3.4,14.2 1.3,21.7 -2.1,7.7 -5.9,10.7 -13.4,13.1 -2.7,0.9 -5.2,1.8 -7.9,0.4 -2.1,-1 -12.7,-9.8 -14.1,-2.8 -0.2,0.8 -1,1 -1.7,0.7 -0.1,0 -0.2,0 -0.2,0 -4.4,-0.9 -8.8,-3.5 -12.9,-5.4 -2.5,-1.2 -5,-2.3 -7.4,-3.7 -1,-0.5 -3.1,-2.3 -4.8,-3.1 -0.6,0 -1.1,-0.1 -1.7,-0.3 -0.3,0.1 -0.5,-0.1 -0.6,-0.3 0,0 0,0 0,0 -0.7,-0.4 -0.5,-1.4 0.2,-1.7 3.1,-1.1 0.7,-8 0.4,-10.5 -0.3,-3.8 -0.4,-7.6 -3.9,-10 -4.8,-3.3 -10.6,0.1 -15.5,-2.8 -0.4,0 -0.7,-0.2 -0.9,-0.6 -0.1,0 -0.1,-0.1 -0.2,-0.1 -0.4,-0.3 -0.4,-0.9 -0.1,-1.3 V 746 c 0,-2.2 0.7,-5.3 -0.6,-7.3 -1.4,-2.1 -5.3,-2.5 -7.2,-0.8 -0.1,0 -0.1,0.1 -0.2,0.1 -0.3,0.8 -1.3,1 -1.9,0.5 -1.1,-1 -1.4,-2 -1.9,-3.5 -0.6,-2 -1.4,-3.7 -2.7,-5.3 -0.9,-1 -1.7,-2 -2.3,-3.1 -2.9,-2.2 -5.6,-4.1 -6.3,-8.6 -0.5,-3.2 0.2,-6.6 0.6,-9.8 0.1,-1.1 0.2,-2.3 0.3,-3.6 -8.2,-1.9 -15.5,-11.6 -15.2,-19.5 0.2,-5.8 3.3,-10.3 7,-14.6 0.6,-0.7 1.3,-1.6 2.1,-2.5 -0.8,-0.5 -1.5,-1.2 -2.1,-2 -0.9,-1.2 -1.4,-2.7 -1.5,-4.1 -4,0.1 -8.3,-2.6 -11.1,-5.1 -3,-2.7 -5.5,-6 -8.2,-9.1 -2,-2.3 -4.3,-4.6 -5.9,-7.3 -1.6,-2.7 -2.1,-5.8 -2.8,-8.8 -0.8,-3.5 -2.1,-7.2 -1.8,-10.8 0.2,-3.1 1.8,-6.1 3,-8.9 0.5,-1.1 1,-2.3 1.5,-3.5 -2.9,0.9 -5.8,0.7 -7.5,-2.3 -1.4,-2.6 -0.2,-5 0.2,-7.7 0.4,-2.1 -0.1,-4.1 -0.3,-6.2 0,-0.3 0,-1.1 -0.1,-2 -5.3,-2.4 -11.3,-5.1 -13.8,-10 -2,-3.8 -2.3,-9.7 -0.2,-13.8 -2.4,-1.6 -4.1,-3.7 -5.2,-7 -1.6,-4.7 -1.4,-10.4 -0.7,-15.3 0.6,-4.4 2.3,-8.6 6.5,-10.5 1,-0.5 2.2,-0.9 3.6,-1.3 -0.2,-1.3 -0.2,-2.5 0.1,-3.5 0.4,-1.7 1.7,-2.6 2.5,-4 0.5,-0.9 0.7,-1.6 0.6,-2.3 -5.3,-2.2 -8.9,-7.3 -12.2,-12.3 -5.4,-8.1 -7.9,-15.9 -9.4,-25.6 -1.3,-8.4 -1.7,-17.2 2.1,-25 0.8,-1.6 2.1,-3.9 3.9,-6 -1.4,-1.2 -2.4,-3 -2.7,-5.5 -0.6,-4 0.2,-7.4 1.7,-10.6 -9.7,1.3 -16.7,-14 -18.6,-21.5 -1.5,-5.7 -2.8,-13 -0.5,-18.6 1.5,-3.8 4.4,-7.3 7.6,-10.3 0.3,-3.3 1.1,-6.4 3.9,-9.3 2.2,-2.3 5.3,-4.2 8.6,-5.7 -2.8,-1.6 -5.2,-3.4 -6.4,-6.9 -1.5,-4.5 -0.2,-9.5 2.2,-13.5 3,-5 7.7,-8.5 12.6,-11.5 3.4,-2.1 6.9,-4.4 10.4,-6.5 -2.3,-4.3 -5.5,-8.5 -7.1,-13 -2.2,-6.3 -3.5,-13.3 -3,-20 0.5,-5.8 2.5,-11.7 6.6,-16 2.1,-2.2 4.8,-3.8 7.7,-4.5 2.1,-0.5 4.4,0.3 6.5,0.4 0.1,-1.9 0.6,-3.7 1.8,-5.4 1.4,-2.1 3.4,-3.6 5.9,-4.1 0.8,-0.2 1.6,-0.1 2.3,0 -3.8,-11.9 -3.8,-24.4 3.6,-35.4 5.1,-7.5 13.1,-10.9 21.5,-12.7 3,-8.5 10.1,-14.7 17.7,-20.4 6,-4.5 12.2,-8.7 18.5,-12.8 0.2,-0.1 0.4,-0.3 0.7,-0.4 -2.3,-6.3 -2.3,-14.5 -1.5,-20.7 0.8,-6.4 2.9,-13.2 7.6,-17.8 5.3,-5.2 11.6,-4 18.1,-2 2.2,0.7 4.8,1.6 7.2,1.2 2.8,-2.6 5.1,-5.4 5.9,-9.9 0.9,-4.8 2.8,-8.7 6.5,-12 3.1,-2.8 8.2,-6.6 12.6,-5.8 1.2,0.2 2.2,0.7 3.1,1.4 1.7,-3.4 4.6,-6.2 8.4,-7.4 1.8,-0.6 4.4,-0.8 7.1,-0.5 2.2,-8 9.1,-15.8 17.1,-16.6 2.5,-0.2 4.9,0.1 7.3,1 0.4,0.2 1.5,0.7 2.7,1.3 -1.2,-6.5 1.1,-13.4 8.5,-15.3 5,-1.3 9.8,0.7 14,3.3 0,0 0.1,0.1 0.2,0.1 5,-3.2 11,-4.4 17.1,-4.2 4.8,0.1 10.6,1.1 15,3.8 3,-2.4 6,-4.9 9.5,-6.6 4,-1.9 8.3,-2.9 12.7,-3.2 5.2,-0.4 10.6,0.2 15.7,1.4 1.5,0.4 3.2,0.8 4.9,1.3 0.4,-0.2 0.8,-0.3 1.2,-0.5 -4.6,-3.1 -7.7,-7.9 -5.6,-14 2.6,-7.8 11.5,-12.8 18.8,-15.5 9,-3.3 19.8,-4.6 29.2,-3.2 4,0.6 7.3,1.9 9.8,5.1 2.1,2.7 2.5,4 6.2,4.5 0.7,0.1 1.4,0.1 2.1,0.2 0.2,-0.4 0.5,-0.7 0.8,-1 0.3,-0.5 0.7,-1 1.3,-1.3 0.4,-0.3 0.8,-0.4 1.3,-0.4 1,0 1.9,0.5 2.5,1.3 2.3,-2.2 3.9,-5 6.4,-7 3.2,-2.5 7.3,-4 11.3,-4.6 5.5,-0.8 12.2,0.2 17,3.5 -0.2,-3.2 1.5,-6.7 4.3,-8.3 3.4,-2 7.5,-0.8 10.5,1.3 4.4,3.2 6.7,8.5 10.1,12.6 3,3.7 6.5,6.2 10.2,8.6 1.2,-1.5 2.7,-2.8 4.2,-3.9 2.4,-1.7 4.9,-3.1 7.1,-5 2,-1.7 3.7,-3.7 5.8,-5.3 8.7,-6.6 20.6,-9.7 31.3,-10.5 5.8,-0.4 11.7,-0.1 17.5,1 6.5,1.2 12.6,3.6 19.3,4.4 6.9,0.9 12.8,4.5 16.7,9.9 1.8,-0.3 3.6,-0.4 5.5,-0.3 5.3,0.4 10.7,2 15.6,4.1 7.4,3.2 11.8,10.2 10.7,17.9 0.5,0.1 1,0.2 1.5,0.3 4.2,0.8 8.3,0.8 12.5,0.4 4.2,-0.4 7.6,-1.2 10.9,-3.2 -0.2,-3.7 0.3,-7.4 0.8,-10.8 0.8,-4.8 3.8,-7.8 7.8,-10.4 8.4,-5.3 17.9,-4.3 25.6,1.9 2.6,2 4.3,4.8 7,6.7 2.3,1.7 4.9,3 7.4,4.4 4.4,2.5 9.2,2.9 13.6,5.9 3.1,2.2 4.7,4.8 5.3,8.3 4.6,-1.9 6.8,-8.4 9.6,-12.6 3.2,-4.9 6.9,-9.5 11.6,-13.1 9.8,-7.6 20,-7.2 31.6,-5.1 11.5,2 23.3,5.7 31.7,14.3 7.3,7.4 9.1,17 10.5,26.8 4.6,-4.6 13.3,-6.6 18.6,-3.8 5.8,3 9,11 6.8,17.2 1.5,0 2.9,0.2 4.2,0.4 2.5,0.6 4.8,1.9 6.8,3.6 0.8,-1.1 1.7,-2.1 2.7,-3 2.2,-1.8 5,-2.3 7.8,-2.5 5.1,-0.3 10.2,1.9 13.5,5.8 4.9,-1.8 10.4,1 14.8,4.6 3,2.5 5.4,5.6 6.6,9.3 0.7,2.2 1.6,5.3 1.7,8.1 5.9,0.3 12.3,2 17.8,3.4 6.8,1.7 13.5,4.2 19.2,8.4 10.7,7.9 17.1,21.4 20.9,34.2 3.1,1.4 6.2,3.3 7.6,6.4 0.8,1.8 0.8,3.9 0.3,5.8 -0.2,0.9 -1.1,2.1 -1.2,3 -0.2,1 0.1,2 0.5,2.9 4.1,0.9 8.1,3.9 10.5,6.9 5.4,6.9 6.8,13.1 6.1,21.6 0.4,-0.1 0.8,-0.2 1.1,-0.2 1.2,-0.2 2.4,-0.1 3.6,0.1 2.4,0.5 4.7,1.9 6.3,3.7 2.7,2.9 4.1,7.4 3.9,11.5 3.4,0.1 6.1,1.7 7.8,5.7 2.3,5.6 1.7,11.8 0.4,17.6 1.3,1 2.6,2.1 3.8,3.4 3.4,3.4 6.9,6.9 9.8,10.8 6.2,8.2 7.6,18.5 8.1,28.5 0.7,16 -3.9,32.4 -15.3,43.5 3.1,1 6,2.6 7.6,5.7 2,3.7 1.6,7.8 0.6,11.8 6.2,0.5 12.5,5.9 14.5,11.4 1.8,4.9 1,10.2 -0.4,15.1 -1.6,5.4 -3.6,10.9 -5.8,16.2 2.8,0.4 6,0 8.7,0.7 3.2,0.9 6.2,2.5 8.8,4.7 6.1,5.1 8,12.3 8,20 0,5.5 0.5,10.5 1.3,15.9 0.4,2.4 -0.2,5.5 -2,8.4 z"
   class="hair-color"
   id="path1670"
   inkscape:connector-curvature="0"
   style="fill:#282828;fill-opacity:1" />
					</g>
					<g
   id="g1676"
   style="fill:#282828;fill-opacity:1">
						<path
   d="m 1288.3,729 c -0.2,-0.1 -0.3,-0.2 -0.4,-0.5 0.1,0.3 0.3,0.4 0.4,0.5 z"
   class="hair-color"
   id="path1674"
   inkscape:connector-curvature="0"
   style="fill:#282828;fill-opacity:1" />
					</g>
				</g>
				<path
   d="m 1288.4,729 c 0,0 -0.1,0 -0.1,-0.1 0,0.1 0.1,0.1 0.1,0.1 z"
   class="hair-color"
   id="path1680"
   inkscape:connector-curvature="0"
   style="fill:#282828;fill-opacity:1" />
			</g><g
   id="_x32_6_x5F_Hair_x5F_AfroTight_Shadows_Highlights"
   transform="matrix(2.9683834,0,0,2.9683834,-676.20304,505.50114)">
				<g
   id="g1778"
   style="opacity:0.35">
					<path
   d="m 644.7,426.2 c -8.6,-0.9 -16.4,4.4 -21.5,10.9 -3.9,5 -8.3,11.7 -7,18.1 -5.8,1.3 -10.1,2.8 -13.3,8.6 -2.6,4.7 -3.6,12.5 1.2,16.1 0.6,0.4 1.5,0.1 1.8,-0.5 3.3,-5.2 0.5,-12.7 8,-15.1 2.5,-0.8 5.3,-0.6 7,-3 1.1,-1.6 1.5,-3.8 1.1,-5.6 -0.2,-2.8 -0.5,-5.4 0.4,-8.3 1,-3.5 3.2,-6.7 5.5,-9.4 2.2,-2.6 4.8,-4.9 7.7,-6.5 3.1,-1.6 6.5,-2.1 9.5,-3.9 0.6,-0.4 0.2,-1.3 -0.4,-1.4 z"
   id="path1730"
   inkscape:connector-curvature="0"
   style="fill:#e8fffa" />
					<path
   d="m 923.2,389.6 c -1,-1.4 -2.4,-2.8 -3.8,-3.7 -2.1,-1.4 -4.5,-1.4 -6.9,-1.2 -0.6,-11.7 -11.5,-22.1 -23,-19.2 -2,-7.6 -5.5,-14.6 -12.3,-19.2 -6.5,-4.4 -15.3,-5.2 -21.4,0.3 -1.4,1.2 -0.3,3.6 1.5,3.6 5.5,-0.1 12.5,0 16.6,4.3 4.2,4.4 5.7,11 7.6,16.6 1.3,3.9 5.1,3.9 7.3,2 2.9,-0.1 6.3,-1.1 9,-0.2 6.6,2.2 8.1,9.7 12,14.6 0.3,0.4 1,0.5 1.5,0.4 4.1,-0.9 6.4,1.4 9.2,3.6 1,0.8 3.4,1.8 4.1,2.6 0.4,0.5 1.1,-0.2 0.7,-0.7 -0.9,-0.8 -1.3,-2.6 -2.1,-3.8 z"
   id="path1732"
   inkscape:connector-curvature="0"
   style="fill:#e8fffa" />
					<path
   d="m 1147.1,364.8 c -3,-7 -12.3,-12.8 -20.4,-12.7 -1.9,-7.8 -5.4,-15.4 -12.3,-19.9 -4.8,-3 -16.9,-5.3 -18.8,2.3 -0.1,0.3 0.1,0.6 0.4,0.8 2.3,0.7 4.8,0.4 7.2,0.7 3.4,0.4 6.5,2.1 8.9,4.4 4.9,4.7 6.7,11.5 7.9,18 0.7,3.5 4.5,3.5 6.5,1.6 4.7,1.5 10,1.8 13.7,6 5.5,6.4 5.7,14.4 1.1,21.2 -0.6,0.9 0,1.9 0.8,2.2 0.2,0.6 0.6,1.1 1.1,1.8 0.9,1.3 1.5,2.8 1.8,4.3 0.3,1.3 0.5,2.6 0.6,3.9 0.1,1.4 -0.3,2.1 0.3,3.3 0.1,0.2 0.4,0.3 0.6,0.2 2.7,-1.1 3,-5.7 2.6,-8.2 -0.4,-2.1 -1.5,-5.8 -3.5,-7.4 5.2,-5.4 4.3,-15.8 1.5,-22.5 z"
   id="path1734"
   inkscape:connector-curvature="0"
   style="fill:#e8fffa" />
					<path
   d="m 1074.4,324.1 c -7.7,-2.4 -16.8,0.5 -20.4,7.7 -3.7,-2.1 -7.1,-4.1 -11.9,-3.6 -4.8,0.5 -11.4,2.5 -13.2,7.5 -0.2,0.5 0.3,1 0.8,1 4.3,0.3 8.4,-2.1 12.8,-2.3 4.7,-0.1 7.7,2.8 11.7,4.8 1.8,0.9 4.2,0.2 4.7,-1.9 1.8,-7.7 9.3,-9.5 15.5,-12.4 0.5,-0.2 0.3,-0.7 0,-0.8 z"
   id="path1736"
   inkscape:connector-curvature="0"
   style="fill:#e8fffa" />
					<path
   d="m 1097.4,245.6 c 0.5,-0.4 0.9,-0.9 1.5,-1.2 1.8,-1.2 3.5,-1.1 5.5,-0.6 2.9,0.6 4.5,-3.1 2,-4.7 -2.6,-1.7 -7,-2.2 -9.9,-0.7 -0.6,0.3 -1.1,0.7 -1.6,1.1 -0.2,-0.1 -0.3,-0.2 -0.6,-0.4 -0.9,-1.1 -2.8,-2.2 -4,-2.9 -2.8,-1.5 -5.9,-2.1 -9.1,-1.5 -5.3,0.9 -11.1,4.2 -10.7,10.1 0.1,1.1 1.1,1.7 2.1,1.2 4,-2 7.2,-5.1 12.1,-3.6 3.2,1 5.3,5.1 8.6,5.4 0.3,0.1 0.6,0.1 0.8,0 0,0 0,0 0.1,0 1.6,-0.3 2.6,-1.1 3.2,-2.2 z"
   id="path1738"
   inkscape:connector-curvature="0"
   style="fill:#e8fffa" />
					<path
   d="m 1056.3,184.9 c 3.6,0.2 7.7,-1.6 11.2,-0.5 4.2,1.3 6.3,5.9 7.4,9.7 0.4,1.6 1.8,2.4 3.2,2.6 0.2,0.1 0.3,0.1 0.5,0.2 2.6,0.7 5.2,0.2 7.7,1.2 2.6,1.1 4.9,3.1 7,5 4.2,3.7 6.5,8.5 8.7,13.6 0.2,1.5 1.2,2.8 2.7,3.2 0.5,0.6 1.2,0.9 2.2,0.9 4.1,-0.2 7.8,-1.1 11.8,-0.3 4.2,0.8 7.6,2.8 10.6,5.8 2.9,2.8 5.4,6.4 7.5,9.9 1.5,2.6 2.4,5.5 5.1,7.1 0.5,0.3 1.2,0 1.4,-0.6 0.9,-3.9 -1.7,-7.8 -3.4,-11.2 -2.2,-4.3 -5.2,-8.1 -8.9,-11.2 -6.7,-5.5 -13.5,-7.4 -21.4,-6.2 -1.2,-3.9 -1.9,-7.9 -3.9,-11.6 -2.3,-4.2 -6.1,-7.2 -9.8,-10.1 -3.4,-2.6 -7.3,-4.7 -11.7,-4.9 -1.1,-0.1 -2.6,0 -4.1,0.3 -2.1,-3.9 -5.1,-7.2 -9.7,-8.3 -5,-1.2 -11.6,-0.3 -14.7,4.1 -0.5,0.6 0,1.3 0.6,1.3 z"
   id="path1740"
   inkscape:connector-curvature="0"
   style="fill:#e8fffa" />
					<path
   d="m 1142.8,245.1 c 0.1,0.1 0.1,0.1 0.2,0.1 0.1,0.1 0.1,0 0.1,-0.1 -0.1,0 -0.1,0 -0.3,0 0.1,-0.1 0,0 0,0 z"
   id="path1742"
   inkscape:connector-curvature="0"
   style="fill:#e8fffa" />
					<path
   d="m 1198.6,205.6 c 0.2,0.1 0.3,0.1 0.4,0.1 1.2,0.9 2.8,1.2 4.2,0.4 0.4,-0.2 0.8,-0.5 1.2,-0.9 2,-0.3 4,0.2 5.6,1.5 2.2,1.8 2.9,3.8 3.5,6.4 -0.3,1 0.2,2.2 1.3,2.4 0.3,0.1 0.6,0.1 0.9,0.1 0.7,0.2 1.5,0.2 2.2,0 1.4,-0.2 2.8,-0.6 4.1,-1.3 2.1,-0.1 4.2,-1.3 4.8,-3.2 0.2,-0.2 0.4,-0.4 0.6,-0.5 2.5,-2.2 4.3,-3.4 6.5,-0.7 0.7,2.1 1.3,4.4 1.8,6.6 -0.6,1.1 -0.7,2.6 0.3,4 0.3,0.5 0.6,1.1 0.9,1.6 0.5,2.2 0.9,4.5 1.4,6.6 1.8,7.5 4,15 4.4,22.7 0.3,4.5 5.9,5 7.6,1 4.1,-10 0.5,-23.3 -4.6,-33 0.4,-0.7 0.7,-1.4 0.6,-2.3 -0.4,-8 -5.6,-19.6 -15.2,-18.6 -2.8,0.3 -4.7,1.8 -6.4,3.8 -2.4,-5.4 -6.3,-9.7 -12.7,-10.6 -3.6,-0.5 -8.5,0.8 -11.7,3.5 -2.8,-3.9 -7.3,-6.6 -12.2,-7.4 -3.5,-0.5 -7.3,-0.1 -10.4,1.8 -3.2,2 -4,5.4 -6.6,7.8 -1.1,1 -0.4,2.6 0.8,3 2.1,0.7 2.7,-0.2 4.5,-1.1 2.5,-1.2 6.2,-1.9 8.9,-1.8 6.2,0.2 7.8,6.4 13.3,8.1 z"
   id="path1744"
   inkscape:connector-curvature="0"
   style="fill:#e8fffa" />
					<path
   d="m 1257.1,268.5 c -6.5,-4 -14.7,-7.1 -22.5,-6.8 -2.8,0.1 -6.4,1 -9.5,2.6 -2.5,-7.4 -5.7,-13.9 -14.2,-16.7 -9.2,-3.1 -22.6,-4.1 -29.9,3.3 -1.4,1.4 -0.4,3.9 1.6,3.9 8.2,0.1 15.6,-1.9 23.7,1 8.3,2.9 9.3,12.1 11.9,19.6 0.9,2.7 3.3,4 6.1,3.5 0.1,0 0.3,0 0.4,-0.1 2.2,-0.4 3.4,-2.4 3.5,-4.5 0.5,-0.4 1,-0.9 1.6,-1.2 3.2,-1.9 7.1,-1.5 10.5,-0.8 5.4,1.2 10.5,3.7 14.9,7 4.2,3.1 9,7.7 10.7,12.8 1.8,5.1 1.9,10 6.3,13.9 0.6,0.5 1.5,0.5 2,-0.2 8.6,-14.4 -5.7,-30.3 -17.1,-37.3 z"
   id="path1746"
   inkscape:connector-curvature="0"
   style="fill:#e8fffa" />
					<path
   d="m 1329.3,298.9 c 0.5,1.4 1.6,2.3 3.1,2.4 2.6,0.2 4.9,0.3 7.1,1 0.5,1.1 0.3,2.9 0.4,3.9 0.2,1.7 0.6,3.3 1,4.9 0.8,2.7 1.2,7.2 3.9,8.8 4.4,2.6 8.2,-1.7 12.1,-3.4 0,0.1 0,0.2 0.1,0.4 0.3,1.3 0.6,2.7 1,4 -1.2,3.8 -2,8.2 -1.6,11.9 0.2,2 0.8,3.6 1.6,5.4 1.4,3 1.6,5.4 0.6,8.3 -0.2,0.3 -0.4,0.7 -0.5,1.2 -0.1,0.1 -0.1,0.2 -0.2,0.4 -0.4,0.8 -0.2,1.6 0.4,2 0.8,3.5 1.9,6.6 1.7,10.4 -0.2,3.9 -1.7,8.3 -0.4,12 0.2,0.5 0.6,0.5 1,0.3 6.7,-5.3 5.5,-18.1 3.8,-25.5 -0.2,-0.7 -0.5,-1.2 -0.8,-1.5 0.7,-2.2 0.6,-4.8 0,-7.3 -1,-3.9 -0.8,-7.6 -0.3,-11.4 0.5,-0.1 0.9,-0.4 1.2,-0.9 1.5,-2.4 1.6,-5.9 1.3,-8.7 -0.3,-2.8 -0.7,-6.5 -2.2,-8.9 -1.9,-3 -5.2,-4 -8.4,-3.6 -0.1,-0.3 -0.1,-0.6 -0.1,-1 -0.4,-3.1 -1.3,-6.1 -3.7,-8.3 -2.1,-1.9 -5.1,-2.6 -7.7,-3.6 -1.8,-0.7 -3.7,-1.3 -5.5,-1.3 -1.3,-3.2 -3.7,-6.3 -6.1,-8.3 -1.8,-1.5 -3.8,-2.6 -5.8,-3.6 -1.8,-5.7 -4.3,-10.6 -10.7,-12.5 -5.5,-1.6 -12.9,-0.2 -16.7,4.3 -0.2,0.1 -0.4,0.2 -0.6,0.4 -1.6,1 -0.9,3.5 1,3.5 3,0.1 6.9,0.5 9.8,1.4 3.6,1.1 5.4,3.8 7.6,6.5 4.2,5.5 10.2,9 12.6,16.4 z"
   id="path1748"
   inkscape:connector-curvature="0"
   style="fill:#e8fffa" />
					<path
   d="m 1354.4,437.3 c 3.1,-5.2 3,-11.3 0.3,-16.8 -1.8,-3.7 -5.1,-8.4 -9.2,-10 0,-5.7 -1.3,-11.5 -4.4,-16.2 -1.7,-2.6 -3.9,-5.1 -6.6,-6 0.5,-1.8 0.9,-3.9 1.2,-5.5 0.6,-3.2 -0.1,-6.4 -1.3,-9.4 -2.6,-6.3 -8,-12.1 -13.8,-15.6 -1.6,-1 -2.9,1.1 -1.9,2.5 3.4,4.4 7.5,8.8 9.8,13.9 1.8,3.9 1,9.9 -0.7,13.9 -0.5,0.6 -0.7,1.5 -0.5,2.5 0,0.1 0,0.2 0.1,0.2 0.3,1.5 1.7,2.3 3.1,2.2 6.8,4.9 10.3,12.2 8.9,21 -0.4,2.7 0.7,3.6 2.1,3.6 1.7,2.3 4.1,4.3 5,7.1 0.8,2.4 0.4,4.5 0,6.6 -0.1,0 -0.2,0 -0.3,0 -0.7,0 -1.5,0.4 -1.9,1.1 -1.3,2.3 -0.7,4.1 0.1,6.5 1,3.5 1.9,6.8 2.4,10.5 1,7.9 -0.3,14.1 -6.2,19.7 -2,1.9 0.7,5.7 3.1,4 7.3,-5.4 9.4,-13.1 11,-21.7 0.6,-3.1 0.4,-8.7 -1,-13.2 0.3,-0.2 0.5,-0.6 0.7,-0.9 z"
   id="path1750"
   inkscape:connector-curvature="0"
   style="fill:#e8fffa" />
					<path
   d="m 1368.3,476.9 c -1.1,-1.6 -4.3,-1.3 -4.1,1.1 0.3,3.4 0.3,6.3 -0.1,9.6 -0.5,3.9 -0.1,8.4 -2.5,11.7 -1.3,1.8 -8.7,6.4 -4.7,9.2 5.4,3.8 12.7,-4.2 14.1,-8.9 1.9,-6.8 1.7,-16.7 -2.7,-22.7 z"
   id="path1752"
   inkscape:connector-curvature="0"
   style="fill:#e8fffa" />
					<path
   d="m 1349.2,511.6 c 0.1,3.5 -0.3,6.9 -0.7,10.4 -0.4,3.2 -1.8,6.7 -1.6,9.9 0.1,0.7 0.7,0.9 1.2,0.5 5.4,-4.3 6.1,-14.5 5.8,-20.8 0,-3.1 -4.8,-3.1 -4.7,0 z"
   id="path1754"
   inkscape:connector-curvature="0"
   style="fill:#e8fffa" />
					<path
   d="m 1309.5,163.9 c 1.5,2.1 3,4.2 4.2,6.4 1.3,2.3 1.7,4.4 4.1,5.8 1.2,0.7 2.5,0 2.9,-1.2 2.8,-8.5 -17.8,-35.9 -25.8,-25 -0.6,0.8 0.2,1.9 1.1,1.9 5.8,0.4 10.5,7.9 13.5,12.1 z"
   id="path1756"
   inkscape:connector-curvature="0"
   style="fill:#e8fffa" />
					<path
   d="m 1187.6,88.1 c 1.2,-4.1 -0.7,-7.2 -1.8,-11 -1.2,-4.5 -2.7,-7.9 -5.6,-11.6 -5,-6.5 -11.7,-11.3 -19.2,-14.4 -6.8,-2.8 -16.6,-5.1 -23.8,-2.4 -4.6,1.7 -8.9,6.4 -10,11.4 -2.3,0.1 -4.6,0.6 -6.4,1.8 -3.3,2.2 -4.9,5.6 -3.2,9.3 0.8,1.9 3.5,2.2 5.1,1.3 0.8,-0.4 1.4,-0.8 2.1,-1.4 0.3,-0.2 0.5,-0.6 0.8,-0.8 -0.3,0.2 0.4,-0.1 0.4,-0.2 0.3,-0.1 0.8,-0.1 1.3,-0.1 1,0 2.1,0 3.1,-0.1 0.9,-0.1 1.8,-0.4 2.6,-0.9 1.2,-0.4 2.2,-1.2 2.5,-2.6 0.6,-2.5 1.2,-5.1 3.2,-6.9 2.4,-2.2 5.4,-2.1 8.5,-1.8 5.4,0.5 10.7,2.3 15.4,5.1 10,6 14.6,16.4 20.6,25.8 1.1,1.8 3.8,1.5 4.4,-0.5 z"
   id="path1758"
   inkscape:connector-curvature="0"
   style="fill:#e8fffa" />
					<path
   d="m 1061.5,101.6 c 1.7,-0.4 2.9,-0.3 4.6,-0.9 2.5,-0.8 4.9,-1.3 7.6,-1.3 5.6,0.1 9.5,2.3 13.9,5.4 3.3,2.3 5.4,2.4 9.1,1.7 6.6,-1.3 12.8,1.7 16.1,7.5 1.2,2.1 4.7,0.7 3.9,-1.6 -1.8,-5 -5,-9.1 -10.1,-11.1 -2.6,-1 -5.5,-1.4 -8.2,-1.2 -1.3,0.1 -2.8,0.9 -4.1,0.8 -2,-0.1 -3,-1.1 -4.7,-2.4 -4.4,-3.3 -9.7,-5.1 -15.2,-5 -2.6,0.1 -5.2,0.5 -7.6,1.3 -3.8,1.2 -4.2,1.8 -6.5,4.7 -0.8,0.9 -0.1,2.3 1.2,2.1 z"
   id="path1760"
   inkscape:connector-curvature="0"
   style="fill:#e8fffa" />
					<path
   d="m 1037.6,190.8 c -1.8,-8.2 -9.3,-12.9 -17.1,-13.6 0.3,-3.7 0.1,-7.8 -2.5,-10.2 -3.3,-3.1 -9.4,-3.7 -13.7,-3.9 -8,-0.4 -19.2,2.2 -25.2,8.5 -0.3,-0.1 -0.6,-0.2 -0.9,-0.3 -2.9,-0.8 -6.1,0.3 -9,0.1 -6,-0.4 -11,-1.2 -16.7,1.2 -8.4,3.6 -14.8,10.1 -19.5,17.7 -5,-0.7 -11.4,1.4 -15.3,3 -5.9,2.4 -10.8,5.5 -13,11.8 -0.3,0.9 0.7,1.9 1.6,1.6 5.2,-1.8 9.7,-4.9 14.8,-6.8 2.4,-0.9 4.9,-1.6 7.4,-2 1.7,-0.2 3.3,-0.2 4.9,-0.4 2.4,0.9 4.6,-0.4 6.3,-2.6 3.5,-4.4 6.6,-7.6 11.4,-10.5 4.8,-2.9 8.8,-3.9 14.5,-3.4 4.9,0.5 9.7,0.1 14.6,0.3 0.5,0 1,-0.1 1.4,-0.2 0.4,-0.1 0.8,-0.2 1.2,-0.4 3,-1.4 5.4,-3.8 8.5,-5.2 2.9,-1.3 6.1,-2.1 9.2,-2.4 3.2,-0.2 6.3,1 9.3,0.9 0.2,0.1 0.3,0.1 0.5,0.2 0,0.2 0,0.5 0,0.7 -0.5,1.9 0.1,4.5 0.5,6.4 0,0 0.1,0 0.1,-0.1 0.2,0.7 0.6,1.4 1.2,1.9 0.3,0.5 0.7,1 1.2,1.3 3.2,1.9 6.6,2.1 9.9,3.5 3.1,1.3 4.9,3.4 6.7,6.2 2.7,3.8 8.7,1.2 7.7,-3.3 z"
   id="path1762"
   inkscape:connector-curvature="0"
   style="fill:#e8fffa" />
					<path
   d="m 984.2,91.9 c -6,-2.7 -14.1,-3.5 -19.8,0.2 -4.1,-2.5 -9.9,-3.2 -14.1,-2.3 -3.8,0.8 -7.6,3.6 -9.7,7.2 -1,-0.4 -1.9,-0.7 -2.9,-0.9 -2.8,-0.7 -5.7,-1.1 -8.5,-1.2 -5.7,-0.2 -11.9,1.2 -17.5,2.5 -2.8,0.6 -2,4.7 0.7,4.9 6.3,0.3 12.6,0.6 18.9,1.8 4.9,0.9 9.7,5 14.6,2.7 1.1,-0.5 1.8,-1.6 2.1,-2.7 1.5,-2.1 2.6,-4.4 5.8,-4.6 3.1,-0.1 5.6,1.9 8.4,2.5 1.3,1 3,1.3 4.9,0.2 13.9,-8.4 22.2,9 33.9,12.9 2.3,0.8 4.5,-1.7 3.9,-3.9 -2.2,-8.6 -13.1,-15.9 -20.7,-19.3 z"
   id="path1764"
   inkscape:connector-curvature="0"
   style="fill:#e8fffa" />
					<path
   d="m 896.3,62.9 c 2.3,-2.3 3.5,-5.3 5.9,-7.6 2.3,-2.1 5.1,-3.7 8.1,-4.5 6.7,-1.8 15.6,-0.2 21.1,4 1.9,1.5 4.7,0.2 5.8,-1.5 -0.5,0.8 1.8,0 2.6,-0.1 1.9,-0.2 3.8,-0.3 5.6,-0.2 3.8,0.3 6.2,1.6 8.5,4.6 1.4,1.8 3.1,2 4.6,1.5 3.2,1 6.2,1.7 8.4,4.8 1.7,2.4 2,5.8 4.8,7.3 2.9,1.7 4.9,0 7.6,-0.5 4.7,-0.9 10,2 14,4.1 5.7,2.9 9.7,-4.7 4.9,-8.3 -5.2,-4 -14.3,-7 -21.4,-5.4 -0.1,-0.1 -0.1,-0.2 -0.2,-0.4 -0.5,-1.1 -1.2,-2 -1.9,-3 -1.4,-1.8 -3,-3.4 -4.9,-4.7 -2.9,-2 -6.3,-3.4 -9.8,-3.5 -4.6,-5 -11.1,-6.8 -17.9,-6.4 -2.8,0.1 -7.4,0.5 -10.3,2.2 -7.8,-4.3 -15.7,-6.6 -24.9,-3.8 -7.7,2.3 -18,9.5 -18.1,18.4 0.1,3.7 4.8,5.6 7.5,3 z"
   id="path1766"
   inkscape:connector-curvature="0"
   style="fill:#e8fffa" />
					<path
   d="m 866.7,76.8 c 3.4,-0.4 3.6,-5.3 0,-5.5 -6.1,-0.2 -12.8,-0.3 -16,5 -1.2,-0.2 -2.8,-0.8 -3.6,-1 -1.8,-0.3 -3.7,-0.6 -5.5,-0.6 -2.8,0 -5.6,0.5 -8.2,1.6 -1.4,0.6 -4.8,4.1 -5.7,4.2 -0.9,0.1 -4.9,-2.4 -6.4,-2.6 -5.8,-0.9 -10.3,1.8 -14.2,5.9 -0.5,0.5 -4.7,6 -1.7,6.1 1.8,0.1 2.3,-1.1 3.6,-2.3 2.6,-2.6 5.7,-4.3 9.5,-4.4 5.4,-0.2 8.3,5.4 13.2,1.2 3.1,-2.7 5.8,-3.8 10,-3.8 3.4,0 6.8,1.7 10.1,1.5 2.1,-0.2 2.5,-1.3 4,-2.5 2.4,-2.1 7.8,-2.4 10.9,-2.8 z"
   id="path1768"
   inkscape:connector-curvature="0"
   style="fill:#e8fffa" />
					<path
   d="m 732.7,114.8 c 0.7,-1.5 1,-3 1.5,-4.5 1.2,-3.6 3.4,-5.6 6.7,-7.4 2.2,-1.3 4.6,-2.3 7.1,-2.8 2.6,-0.5 5.3,0 7.8,-0.9 2.2,-0.7 3.2,-3.2 2.3,-5.1 0.1,-1.3 0.3,-2.7 0.7,-3.8 0.6,-1.4 2.4,-3.7 4,-4.5 5.2,-2.8 10.2,1.4 15,2.8 1.4,0.4 2.2,-0.6 2.3,-1.6 2.3,-1.4 3.3,-5.3 5.5,-6.9 1.7,-1.2 4.1,-1.6 6,-2.2 2.8,-0.9 5.5,-1.9 8.4,-2.4 1.7,-0.3 2.6,-1.3 3.1,-2.6 0.5,-0.3 0.9,-0.8 1.3,-1.2 2,-1.8 3.9,-2.9 6.3,-4.1 2.8,-1.3 5.4,-2.1 8.4,-2.8 2.8,-0.6 5.7,-0.7 8.3,-1.6 0.7,-0.2 1.1,-1.5 0.2,-1.9 -6.7,-2.9 -17.1,-0.2 -23.2,3.4 -1.1,0.7 -2.2,1.5 -3,2.4 -0.7,-0.6 -1.6,-0.9 -2.8,-0.9 -10.5,0.5 -21.2,5.8 -22.9,16.6 -2.4,-1.4 -5,-2.5 -7.5,-2.9 -3.6,-0.6 -6.3,0.5 -9.6,1.7 -3.5,1.3 -7.6,5.3 -8.7,9.3 -11.9,0.4 -27.4,13.4 -18.9,23.9 0.5,0.6 1.4,0.5 1.7,0 z"
   id="path1770"
   inkscape:connector-curvature="0"
   style="fill:#e8fffa" />
					<path
   d="m 833.7,130.3 c -2.8,-0.7 -5.8,0.3 -8.6,0.1 -2.5,-0.1 -4.6,-0.5 -7,-0.1 -4.3,0.8 -8.2,3.2 -11.3,6.2 -1.7,1.6 -3.1,3.4 -4.3,5.4 -0.8,1.4 -1.3,3.1 -2,4.6 -2,0.2 -3.6,-0.2 -5.6,1.7 -0.5,0.4 -0.8,0.9 -1.2,1.4 -0.7,1.1 -0.8,1.3 -0.5,0.4 -1.1,0.6 -2.6,0.6 -3.7,1.2 -2.9,1.4 -5.1,4.1 -6.3,7.2 -5.6,-1.5 -13.3,1.5 -17.5,4.5 -4.5,3.2 -8.7,10.6 -8.7,16.7 -0.9,0 -1.8,-0.1 -2.7,-0.1 -2.6,-0.3 -5.2,-1.2 -7.9,-1.4 -3.9,-0.2 -6.5,1.5 -9.3,4.1 -6.2,5.9 -10.2,13 -11.4,21.5 -0.3,2.2 2.9,3.2 3.3,0.9 1.4,-6.9 6,-13.5 11.8,-17.6 5.5,-3.8 11.8,-1.9 17.9,-3.2 0.6,0.2 1.3,0.2 1.8,-0.2 4.3,-3 4.8,-8.4 7.3,-12.8 1.6,-2.8 4.3,-4.2 7.2,-5.4 2.5,-1 4.6,-0.8 6.8,-0.6 0.6,1.2 2.2,2.1 3.4,1.6 2.8,-1.1 2.9,-2.3 4.5,-4.7 2.1,-3.1 4.7,-2.5 7.9,-3.6 1.2,-0.4 1.9,-1.2 3,-1.8 0.1,-0.1 0.2,-0.1 0.3,-0.2 0,0.1 0.3,0.2 1.6,0 3,-0.4 4.9,-1.6 6.4,-4.4 1.5,-2.9 2,-5.4 4.4,-7.9 2.1,-2.1 4.6,-3.4 7.4,-4.4 3,-1.1 6.1,-2.4 9.4,-2.8 5.3,-0.6 7,1.1 10.3,4.9 2,2.3 5.2,-1 3.3,-3.3 -2.5,-2.6 -6.1,-6.9 -10,-7.9 z"
   id="path1772"
   inkscape:connector-curvature="0"
   style="fill:#e8fffa" />
					<path
   d="m 652.5,209.2 c -3.6,2 -7,3.8 -10.2,6.3 -3.7,2.8 -7.8,4.5 -11.3,7.7 -3.1,2.9 -5.1,6.2 -5.2,9.7 -4.6,-0.5 -10.3,1.5 -13.2,3.7 -5.7,4.3 -9.3,10.9 -10,17.8 -0.1,0 -0.2,0 -0.3,0 -1.7,0 -3.2,0.8 -4.1,2.2 -0.5,0.7 -0.8,1.7 -1,2.7 -3.1,-0.2 -6.1,-0.4 -9,1.2 -1.8,1 -3.3,2.6 -4,4.6 0,0.1 -0.1,0.2 -0.1,0.3 -5.7,1 -10.9,4.2 -14.9,8.4 -5.8,6.2 -8.2,15.6 -9,23.8 -0.1,0.7 1,1.1 1.4,0.6 4.3,-5.3 7,-12 11.7,-17 4.9,-5.1 11,-6.4 17.5,-8 2,-0.5 3.1,-2.7 3,-4.7 0.1,0 0.1,0 0.2,0 4.3,0.2 8.1,1.5 10.7,-2.9 0.6,-1 0.7,-2.2 0.3,-3.3 0.7,-0.2 1.2,-0.6 1.8,-1.1 0.8,-0.6 1.1,-1.7 1.1,-2.7 1.2,-2 2.4,-3.9 3.6,-6 1.5,-2.8 3.1,-6 5.8,-7.8 4.3,-2.8 9.3,-0.3 13.5,-2.7 1.8,-1 2.1,-3.2 1.3,-5 -0.1,-0.2 -0.2,-0.3 -0.2,-0.5 0.5,-5.1 5.2,-8.7 8.6,-12.1 4.5,-4.5 9.2,-8.5 13.7,-13.1 1,-1.1 -0.4,-2.9 -1.7,-2.1 z"
   id="path1774"
   inkscape:connector-curvature="0"
   style="fill:#e8fffa" />
					<path
   d="m 612.7,198 c 0.9,0.8 2,1 3,0.4 0.3,-0.2 0.5,-0.3 0.7,-0.6 1,-1.4 0.3,-2.9 0.1,-4.5 -0.4,-2.9 0.2,-6.2 0.7,-9.1 0.9,-4.5 1.9,-13.1 7.4,-13.5 0.6,0.6 1.3,1.1 2.1,1.6 2,1.3 5.3,-0.4 5.1,-2.9 -0.4,-3.9 0.6,-8.5 4,-10.9 1.8,-1.3 4.2,-1.7 6.2,-2.8 2.1,-1.1 4.1,-2.4 5.8,-4 1.2,-1.2 0.7,-3.4 -1,-3.9 -7.3,-2 -15.5,0 -20.4,6 -1.8,2.2 -3,4.7 -3.6,7.5 -6.4,0.2 -10.8,7.3 -12.3,13.2 -1.7,7 -4,18.2 2.2,23.5 z"
   id="path1776"
   inkscape:connector-curvature="0"
   style="fill:#e8fffa" />
				</g>
			</g><g
   id="_x32_6_x5F_Hair_x5F_AfroTight_Shadows"
   transform="matrix(2.9683834,0,0,2.9683834,-676.20304,505.50114)">
				<g
   id="g1685"
   style="opacity:0.3">
					<path
   d="m 1204,84.7 c -0.1,-0.2 -0.2,-0.4 -0.4,-0.6 -0.2,0 -0.3,0 -0.5,0.1 0.1,0.1 0.3,0.1 0.4,0.2 0.1,0 0.3,0.2 0.5,0.3 z"
   id="path1683"
   inkscape:connector-curvature="0"
   style="fill:#05132b" />
				</g>
				<g
   id="g1689"
   style="opacity:0.3">
					<path
   d="m 1190.5,82.8 c 1.2,4.6 1.5,9.7 4.7,13.3 -0.1,-2.4 -0.8,-4.5 0,-7 0.3,-1 0.9,-2 1.7,-2.9 -1.5,0.8 -2.8,1.7 -3.9,2.8 -1.1,-8 -2.6,-15.9 -7.1,-22.5 0.5,1.2 0.9,2.5 1.3,3.8 1.1,4.2 2.2,8.4 3.3,12.5 z"
   id="path1687"
   inkscape:connector-curvature="0"
   style="fill:#05132b" />
				</g>
				<g
   id="g1693"
   style="opacity:0.3">
					<path
   d="m 1168.5,53 c -1.4,-0.6 -2.9,-1.2 -4.3,-1.7 0.8,0.4 1.6,0.8 2.5,1.1 0.6,0.3 1.2,0.4 1.8,0.6 z"
   id="path1691"
   inkscape:connector-curvature="0"
   style="fill:#05132b" />
				</g>
				<g
   id="g1697"
   style="opacity:0.3">
					<path
   d="m 1031,64.5 c -0.1,0.6 -0.1,1.2 -0.2,1.8 0.1,0 0.2,-0.1 0.3,-0.1 0,-0.5 -0.1,-1.1 -0.1,-1.7 z"
   id="path1695"
   inkscape:connector-curvature="0"
   style="fill:#05132b" />
				</g>
				<g
   id="g1701"
   style="opacity:0.3">
					<path
   d="m 1080.5,65.2 c -0.3,-0.1 -0.6,-0.3 -0.9,-0.4 0.1,0.3 0.2,0.5 0.3,0.8 0.3,-0.2 0.4,-0.3 0.6,-0.4 z"
   id="path1699"
   inkscape:connector-curvature="0"
   style="fill:#05132b" />
				</g>
				<path
   enable-background="new    "
   d="m 689.6,215.8 c -6.7,3.4 -12.1,12.8 -14.3,19.8 -1.1,3.6 -1.2,7.6 0.3,11.2 0.6,1.6 2.3,3.1 2.7,4.6 0.6,2.5 -2.1,5.9 -3.1,8 -4.9,9.9 -9.7,40 10.5,34.1 2,-0.6 1.5,-3.4 -0.5,-3.5 -5.7,-0.5 -5.5,-2.6 -5.5,-7.5 0,-3.6 0,-7.1 0.8,-10.7 0.8,-3.5 1.9,-7 3.5,-10.2 1.3,-2.8 2.9,-5.5 3,-8.7 0.1,-2.8 -0.9,-5 -2.5,-7.3 -2.6,-3.8 -2.4,-6.5 -0.5,-10.6 2.7,-5.8 7,-11.5 7.8,-17.9 0,-1.3 -1.4,-1.8 -2.2,-1.3 z"
   id="path1703"
   inkscape:connector-curvature="0"
   style="opacity:0.3;fill:#05132b" />
				<path
   enable-background="new    "
   d="m 839.1,121.8 c -8.1,-4.3 -18.5,-1.1 -26.5,2 -4.4,1.7 -7.4,4.4 -11.2,7 -3.5,2.4 -7.2,4.3 -10.4,7.2 -3,2.7 -5.5,5.9 -7.2,9.5 -0.7,1.6 -1.6,3.6 -2,5.7 -3.2,0.1 -6.2,1 -9.4,1.4 -4.3,0.6 -7.3,0.9 -10.8,3.7 -4.4,3.5 -9.9,8.5 -10.4,14.2 -9,-1.8 -17.9,1.8 -24.1,9.1 -3.4,4.1 -6,8.8 -7.1,14 -0.5,2.5 -0.7,5.1 -0.3,7.6 0.5,3.5 2.2,4.9 3.7,8 0.3,0.7 1.4,0.3 1.4,-0.4 0,-2.2 0.9,-4.5 1.1,-6.8 0.1,-2 0.1,-3.9 0.6,-5.8 0.8,-3.7 3.5,-7.5 5.8,-10.5 5.2,-6.6 13.5,-10.9 21.9,-8.5 2.2,0.6 3.8,-1.4 3.5,-3.4 -0.2,-1.4 2.7,-4.7 3.3,-5.8 1.6,-2.9 2.8,-5.9 5,-8.5 2,-2.3 4.7,-4.6 7.7,-5.3 2.4,-0.6 5.6,0.6 8,1.1 0,0.3 0.1,0.6 0.2,0.9 0.2,0.6 0.8,0.6 1.2,0.1 1.9,-2.5 2.6,-6.1 4.2,-8.9 1.6,-2.7 3.4,-5.4 5.5,-7.8 4.2,-4.6 10.1,-6.1 15,-9.7 2.9,-2.2 5.5,-4.9 8.6,-6.7 4.5,-2.5 9.7,-3.2 14.7,-2.8 3.9,0.3 8.1,1.3 11.5,3.3 3.7,2.3 7.4,7.6 6.8,12.1 0,0.3 0.3,0.3 0.4,0.1 1.4,-3.8 1.9,-6.4 -0.9,-9.8 -2.4,-2.7 -6.5,-4.5 -9.8,-6.3 z"
   id="path1705"
   inkscape:connector-curvature="0"
   style="opacity:0.3;fill:#05132b" />
				<path
   enable-background="new    "
   d="m 1217.7,95.4 c 0,-0.1 -0.1,-0.2 -0.1,-0.2 -0.3,-0.6 -1,-0.6 -1.4,-0.3 0,0 0,-0.1 0,-0.1 -0.2,-0.6 -1.2,-0.6 -1.2,0.2 0,1.4 0.1,2.7 0.3,4.1 0.1,1.1 0.1,2.6 0.6,3.6 0.4,0.8 1.1,1 1.9,1.1 0.1,0 0.1,0 0.2,0 4.7,3.7 9.3,9.6 6,15.6 -4.9,9 -8.3,-0.4 -12.7,-2.4 -3,-1.3 -5.5,-1.6 -7.3,-4.9 -1.1,-2.1 -0.6,-4.5 -1.6,-6.7 -0.8,-1.9 -2.3,-3.6 -4.3,-4.1 0,0 0,0 0,0 -0.2,-0.2 -0.4,-0.4 -0.7,-0.6 -0.2,-0.2 -0.4,0.1 -0.2,0.2 2,2.3 2,6.2 1.1,9 -0.2,0.4 0,1 0.3,1.3 3.8,3.6 4.1,10.5 4.6,15.4 0,0 0,0 0,0 0,1.1 1.5,1.5 2.1,0.7 1.3,0.2 2.7,0.1 4.1,0.4 2.5,0.6 4.5,2.2 5.7,4.4 0.4,1.1 2.2,0.9 2.5,-0.1 3,-1 6.8,-2.2 9.8,-1.4 4.1,1.1 5.7,4.5 7,8.1 0.1,0.3 0.6,0.4 0.7,0 0.1,-0.4 0.2,-0.7 0.2,-1.1 0.7,-1 1.1,-2.1 1.9,-3.1 1.3,-1.5 3.3,-1.9 5.2,-1.9 3.2,0 6,1.8 8,4.3 0.5,0.6 1.2,0.2 1.4,-0.3 v 0 c 0.2,-0.1 0.4,-0.1 0.7,-0.2 1.4,0.4 2.9,0.2 4.2,1.1 1.8,1.1 2.9,2.6 4.2,4.2 0.2,0.3 0.6,0.5 0.9,0.5 -0.2,0.4 0.1,0.9 0.6,0.8 7,-1.2 13.1,-0.4 15,7.7 1.3,5.8 -0.6,11.8 -0.5,17.6 0,0.5 0.4,0.8 0.8,0.9 0.4,0.5 1.4,0.4 1.5,-0.4 0.1,-0.2 0.1,-0.4 0.2,-0.6 0.1,-0.1 0.2,-0.1 0.2,-0.2 4.7,-6.9 14.2,0.9 17,5.6 2.5,4.1 4,8.8 6.8,12.7 0.1,0.2 0.3,0.1 0.4,0 0.1,0.1 0.3,0.1 0.4,0.1 0.9,0.1 2.2,0.3 3.1,-0.1 0.3,-0.2 0.6,-0.6 0.5,-0.9 -0.1,-0.8 -0.2,-1.6 -0.3,-2.4 -0.1,-0.8 0,-1.7 -0.2,-2.4 0,-0.1 0,-0.1 -0.1,-0.2 0.1,-0.2 0,-0.4 -0.1,-0.7 -2.6,-4.4 -6.6,-8.5 -9.7,-12.6 -1.6,-2.2 -3.5,-4.4 -4.3,-7.1 -0.7,-2.4 -0.8,-4.8 -1.5,-7.1 0.1,-0.3 0.1,-0.7 -0.1,-1.1 -0.7,-1.5 -1.6,-2.3 -1.8,-3.9 0.3,-2.4 0.7,-4.5 4.1,-5.2 1.5,-0.3 3.2,0.3 4.6,0.8 3.7,1.2 7.1,3.6 9.8,6.4 5.8,5.8 8.8,13.6 11.9,21 0.3,0.8 1.1,1 1.8,0.9 3.1,2.8 6.1,5.5 8.1,9.4 2.6,5.1 3.3,10.4 3.8,16 -0.1,0.1 -0.1,0.3 -0.1,0.4 0.1,0.4 0.1,0.7 0.2,1.1 0.1,0.4 0.3,0.6 0.6,0.7 0,0 0,0 0,0 0.1,0 0.2,0 0.2,0 11.4,0.5 15.1,17.1 16.1,26.2 0.1,1.1 1.2,1.5 1.9,1.1 8.5,4.2 11.8,19.1 13,27.4 0.5,3.2 0.1,7.2 2.2,9.9 2.6,3.5 5.9,6.2 8.3,9.9 0,0 0,0 0,0 0,0.1 0.1,0.2 0.1,0.3 0.1,0.1 0.3,0.1 0.3,0 1.5,-2.1 0.5,-5.2 0.3,-7.6 0,-0.2 0,-0.4 0,-0.5 1.6,-2.1 3.1,-4.1 4.5,-6.2 -0.2,-0.1 -0.3,-0.3 -0.5,-0.4 1.2,-5.8 1.9,-12 -0.4,-17.6 -1.7,-4.1 -4.4,-5.6 -7.8,-5.7 0.2,-4.1 -1.3,-8.5 -3.9,-11.5 -1.7,-1.8 -3.9,-3.2 -6.3,-3.7 -1.2,-0.2 -2.4,-0.3 -3.6,-0.1 -0.3,0.1 -0.7,0.1 -1.1,0.2 0.6,-8.4 -0.7,-14.7 -6.1,-21.6 -2.4,-3 -6.4,-6 -10.5,-6.9 -0.4,-0.9 -0.7,-1.8 -0.5,-2.9 0.2,-0.9 1,-2.1 1.2,-3 0.5,-1.9 0.5,-4 -0.3,-5.8 -1.3,-3.1 -4.4,-5 -7.6,-6.4 -3.8,-12.8 -10.2,-26.2 -20.9,-34.2 -5.7,-4.2 -12.4,-6.7 -19.2,-8.4 -5.5,-1.3 -11.9,-3 -17.8,-3.4 -0.1,-2.8 -1,-5.9 -1.7,-8.1 -1.2,-3.8 -3.6,-6.8 -6.6,-9.3 -4.3,-3.5 -9.8,-6.3 -14.7,-4.6 1.2,2.3 3,4.6 3.8,6.8 0.1,0.3 0.4,0.7 0.8,0.8 2.9,0.4 6.2,1.1 8.8,2.4 3.9,1.9 7.2,7.9 5.8,12.4 -1.4,4.5 -7.9,6.9 -11.6,3.9 -2.8,-2.2 -5.7,-6.3 -7.5,-9.2 -0.2,-0.3 -0.5,-0.3 -0.8,-0.2 -0.1,0 -0.1,0 -0.2,0 -3,0.2 -6.5,-0.4 -7.8,-3.4 -0.4,-1 -1.9,-1.1 -2.6,-0.3 -2.3,2.4 -4.9,5.7 -8.6,5.5 -4.9,-0.3 -6.6,-5.3 -5.8,-9.7 1.2,-3.4 3,-6.6 5.1,-9.4 1.9,-2.5 4.2,-3.7 6.5,-5.2 -2.7,0.2 -5.3,0.7 -7.5,2.5 -1,0.8 -1.9,1.9 -2.7,3 -2,-1.7 -4.4,-3 -6.8,-3.6 -1.2,-0.3 -2.7,-0.4 -4.2,-0.4 0.8,-2.4 0.9,-5 0.3,-7.6 0,0 0,0 -0.1,0 0.2,0.1 -0.1,0.3 -0.3,0.6 z"
   id="path1707"
   inkscape:connector-curvature="0"
   style="opacity:0.3;fill:#05132b" />
				<path
   enable-background="new    "
   d="m 1185.8,66.5 c -2,-4.6 -5.1,-7.9 -10,-10.6 -2.4,-1.3 -4.9,-2.1 -7.4,-2.9 5.2,2.2 9.9,5.2 13.9,9.3 1.4,1.3 2.6,2.8 3.5,4.2 z"
   id="path1709"
   inkscape:connector-curvature="0"
   style="opacity:0.3;fill:#05132b" />
				<path
   enable-background="new    "
   d="m 1198.2,85 c -0.5,0.3 -0.9,0.8 -1.3,1.2 1.9,-1 4.1,-1.7 6.2,-2.1 -1.7,-0.5 -3.6,0 -4.9,0.9 z"
   id="path1711"
   inkscape:connector-curvature="0"
   style="opacity:0.3;fill:#05132b" />
				<path
   enable-background="new    "
   d="m 1206,86.2 c -0.3,-0.7 -0.6,-1.5 -0.9,-2.2 -0.5,0 -1,0.1 -1.5,0.1 0.1,0.2 0.2,0.4 0.4,0.6 -0.2,-0.1 -0.3,-0.3 -0.5,-0.3 -0.1,-0.1 -0.3,-0.1 -0.4,-0.2 -2.2,0.3 -4.3,1 -6.2,2.1 -0.7,0.9 -1.3,1.9 -1.7,2.9 -0.8,2.4 0,4.6 0,7 -3.3,-3.6 -3.5,-8.7 -4.7,-13.3 -1.1,-4.2 -2.2,-8.3 -3.3,-12.5 -0.4,-1.4 -0.8,-2.7 -1.3,-3.8 -1,-1.5 -2.1,-2.9 -3.4,-4.2 -4,-4.1 -8.8,-7.1 -13.9,-9.3 -0.6,-0.2 -1.2,-0.4 -1.8,-0.5 -0.9,-0.3 -1.7,-0.7 -2.5,-1.1 -4.4,-1.5 -8.9,-2.5 -13.4,-3.3 -11.6,-2.1 -21.8,-2.5 -31.6,5.1 -4.6,3.6 -8.4,8.2 -11.6,13.1 -2.8,4.2 -5,10.7 -9.6,12.6 -0.6,-3.6 -2.2,-6.1 -5.3,-8.3 -3.9,-2.7 -8.1,-3.3 -12.2,-5.2 -0.2,0.1 -0.4,0.2 -0.6,0.3 -0.1,-0.3 -0.2,-0.5 -0.3,-0.8 -0.2,-0.1 -0.3,-0.2 -0.5,-0.3 -2.5,-1.4 -5.1,-2.8 -7.4,-4.4 -2.7,-1.9 -4.4,-4.7 -7,-6.7 -7.7,-6.2 -17.2,-7.2 -25.6,-1.9 -4,2.5 -7,5.6 -7.8,10.4 -0.1,0.9 -0.3,1.7 -0.4,2.6 0,0.6 0.1,1.2 0.1,1.8 -0.1,0 -0.2,0.1 -0.3,0.1 -0.2,2.1 -0.3,4.3 -0.2,6.4 -3.3,2.1 -6.7,2.8 -10.9,3.2 -4.2,0.4 -8.3,0.4 -12.5,-0.4 -0.5,-0.1 -1,-0.2 -1.5,-0.3 1.1,-7.8 -3.3,-14.7 -10.7,-17.9 -4.9,-2.1 -10.2,-3.7 -15.6,-4.1 -1.8,-0.1 -3.7,0 -5.5,0.3 -1,-1.5 -2.2,-2.8 -3.5,-3.9 0,0.2 0,0.4 0.1,0.6 0.6,2.3 3.8,5.1 5.8,6.1 2.9,1.5 6.9,0.6 10,1.1 5.5,0.9 9.9,3.6 11.3,9.3 0.8,3.3 1,7.6 -3,9.2 -3.2,1.3 -6.7,-0.4 -9.5,-1.8 -0.8,-0.4 -1.5,0.4 -1.3,1.1 -0.3,0.3 -0.3,0.8 0.1,1.1 2.3,1.1 4.5,2.4 6.3,4.3 0.5,0.6 2,3.3 3,3.8 1.9,0.9 2.6,0.2 3.9,-1.1 3.5,-3.8 7.2,-5.9 12.1,-5.7 1.9,0.5 3.8,0.9 5.8,1.5 1.9,0.6 3.6,1.4 5.2,1.8 1.7,0.9 3.4,2 5.1,3 1.1,0.7 2.9,-0.2 2.8,-1.6 -0.3,-4.5 2.7,-4.2 5.6,-3.1 -1.2,0.5 -2.4,1.2 -3.3,2.1 -3.7,3.4 -5.9,8.8 -4,13.7 4.4,11.1 16.2,4.4 23.9,-1.7 3.1,1.9 6.7,3.1 9.7,2.1 7.7,-2.5 21.3,-5.3 25.9,3.7 0.3,1 1.8,1.3 2.6,0.5 2.2,-1 4.1,-2.6 6.5,-3.2 4.6,-1.1 8.5,0.8 12,3.6 2.7,2.1 5.2,4.5 7.8,6.8 2.8,2.4 5,5.4 7.9,7.8 0.3,0.3 0.8,0 0.7,-0.4 -0.2,-1.2 -0.6,-2.3 -1.2,-3.5 -1.7,-6.6 -5.7,-13 -11.4,-16.9 0.1,0 0.3,0 0.4,0 2.5,0.2 5.5,1 8,0.2 0.7,-0.2 1,-0.8 1.1,-1.4 0,-0.3 0,-0.6 0.1,-0.8 2,2.4 2.3,5.6 3.8,8.8 1.4,3.1 3.7,5.4 6.6,7 0.4,0.2 0.9,-0.1 0.9,-0.5 0.4,-0.2 0.7,-0.6 0.6,-1.1 -0.6,-3.9 1.8,-6.1 5.5,-6.3 2.2,-0.1 4.6,0.9 6.4,-0.5 0.2,-0.2 0.3,-0.6 0.3,-0.9 0.1,-0.1 0.2,-0.2 0.2,-0.4 0.1,-0.5 0.6,-0.8 1,-1.1 0.4,-0.3 0.6,-0.8 0.3,-1.3 -0.2,-0.2 -0.4,-0.4 -0.7,-0.4 0,0 -0.1,-0.1 -0.1,-0.1 -4.6,-3.1 -9.3,-7.5 -14.8,-8.6 -3.6,-0.8 -7.9,0.6 -10.3,-2.9 0,0 0,-0.1 0,-0.1 0,-0.6 -0.3,-1.1 -0.7,-1.4 -1,-3 -0.2,-7.5 0.6,-10.2 1.7,-5.8 6,-15.2 11.2,-18.7 5,-3.3 12.6,-3.2 18.4,-2.9 3.8,0.2 7.2,1 10.3,3.3 1.8,1.3 2.9,2 5.1,2.6 6,1.5 12.4,3.8 16,9.2 6.5,9.5 2.7,25.9 13.5,32.7 0.6,0.3 1.1,0 1.3,-0.5 0.2,0 0.4,-0.2 0.4,-0.5 -0.2,-2.8 0.1,-6.1 1.9,-8.3 1.7,-2 5.1,-2.4 7.6,-2.2 0.2,-0.2 0.3,-0.4 0.3,-0.6 z m -122.4,0.7 c -1.6,-1.1 -2.6,-3.1 -4.6,-3.4 -1.6,-0.2 -2.7,0.2 -4.1,-0.8 -2,-1.5 -2.5,-3.7 -2.2,-5.8 -1,-0.2 -2,-0.7 -3,-1.3 -2.5,-1.5 -3.9,-1.8 -6.6,-2.3 -2.4,-0.4 -4.3,-1.7 -6.5,-2.6 -5.6,-2.1 -5.6,1.4 -8.5,4.7 -2.2,2.5 -5.1,1.9 -7,-0.6 -0.1,-0.1 -0.1,-0.2 -0.2,-0.2 -0.5,-0.3 -0.9,-0.7 -1,-1.4 0,-0.3 -0.1,-0.5 -0.1,-0.8 -0.2,-0.6 -0.3,-1.1 -0.3,-1.7 -1.1,-5.2 -2.3,-10.5 1.3,-15.1 3.4,-4.3 9.2,-5.7 14.4,-5.8 6.2,0 8.2,3.2 11.7,7.5 2.1,2.5 5.2,3.3 7.3,5.8 1.8,2.1 2.4,4.4 2.6,7.1 0,0.4 0,0.8 -0.1,1.1 0.6,0.1 1,0.4 1.4,0.8 5.9,-1.3 13.2,1.7 16,7.1 3.5,7 -4.9,11.5 -10.5,7.7 z"
   id="path1713"
   inkscape:connector-curvature="0"
   style="opacity:0.3;fill:#05132b" />
				<path
   enable-background="new    "
   d="m 1070.4,68.8 c 0,0 0.1,0.1 0.1,0.1 0,-0.1 -0.1,-0.2 -0.1,-0.2 0,0.1 0,0.1 0,0.1 z"
   id="path1715"
   inkscape:connector-curvature="0"
   style="opacity:0.3;fill:#05132b" />
				<path
   enable-background="new    "
   d="m 904.3,72.8 c 1,0.2 1.8,0 2.8,-0.4 0.4,-0.2 0.8,-0.4 1.1,-0.5 0.1,0.2 0.4,0.3 0.7,0.2 0.8,-0.4 1.5,-0.7 2.3,-0.9 0.2,0 0.3,0 0.5,0 1,0.1 2,0.6 2.9,0.9 1.8,0.6 3.8,0.9 5.7,1.1 2.4,0.3 4.6,0 6.9,-0.2 0.5,0 0.7,-0.7 0.3,-1 -4.7,-2.8 -11.9,-4.8 -17.1,-2.1 -0.4,0.1 -0.8,0.2 -1.2,0.3 -1.7,0.7 -2.9,2.1 -4.8,2.3 -0.3,0 -0.3,0.3 -0.1,0.3 z"
   id="path1717"
   inkscape:connector-curvature="0"
   style="opacity:0.3;fill:#05132b" />
				<path
   enable-background="new    "
   d="m 876.3,59 c -1.6,1.1 -3,2.5 -4.2,3.9 -3.8,-2.4 -7.2,-5 -10.2,-8.6 -3.4,-4.1 -5.7,-9.5 -10.1,-12.6 -3,-2.1 -7.2,-3.3 -10.5,-1.3 -2.8,1.7 -4.5,5.1 -4.3,8.3 -4.8,-3.2 -11.5,-4.3 -17,-3.5 -4,0.6 -8,2.1 -11.3,4.6 -2.6,2 -4.1,4.8 -6.4,7 -0.5,-0.8 -1.5,-1.3 -2.5,-1.3 -0.4,0 -0.9,0.1 -1.3,0.4 -0.6,0.4 -1,0.8 -1.3,1.3 -0.3,0.3 -0.6,0.6 -0.8,1 -0.7,0 -1.4,-0.1 -2.1,-0.2 -3.7,-0.4 -4,-1.8 -6.2,-4.5 -2.5,-3.2 -5.8,-4.5 -9.8,-5.1 -9.5,-1.4 -20.2,-0.1 -29.2,3.2 -7.2,2.7 -16.2,7.7 -18.8,15.5 -2,6.2 1,11 5.6,14 -0.4,0.1 -0.8,0.3 -1.2,0.5 -1.7,-0.6 -3.4,-1 -4.9,-1.3 -5.1,-1.3 -10.5,-1.8 -15.7,-1.4 -4.4,0.3 -8.7,1.3 -12.7,3.2 -3.5,1.7 -6.4,4.3 -9.5,6.6 -4.3,-2.8 -10.2,-3.7 -15,-3.8 -6.1,-0.2 -12,1.1 -17.1,4.2 -0.1,0 -0.1,-0.1 -0.2,-0.1 -4.1,-2.6 -9,-4.6 -14,-3.3 -7.4,1.9 -9.7,8.8 -8.5,15.3 -1.2,-0.7 -2.3,-1.2 -2.7,-1.3 -2.3,-0.9 -4.8,-1.3 -7.3,-1 -8,0.8 -15,8.6 -17.1,16.6 -2.6,-0.3 -5.3,-0.1 -7.1,0.5 -3.8,1.2 -6.6,4 -8.4,7.4 -0.9,-0.7 -1.9,-1.2 -3.1,-1.4 -4.4,-0.8 -9.5,3 -12.6,5.8 -3.7,3.3 -5.6,7.2 -6.5,12 -0.8,4.5 -3.2,7.2 -5.9,9.9 -2.4,0.4 -4.9,-0.5 -7.2,-1.2 -6.5,-2 -12.8,-3.1 -18.1,2 -4.7,4.6 -6.9,11.4 -7.6,17.8 -0.8,6.2 -0.8,14.3 1.5,20.7 -0.2,0.1 -0.4,0.3 -0.7,0.4 -6.3,4 -12.5,8.3 -18.5,12.8 -7.6,5.7 -14.7,11.9 -17.7,20.4 -8.5,1.8 -16.5,5.2 -21.5,12.7 -7.4,10.9 -7.4,23.5 -3.6,35.4 -0.8,-0.1 -1.5,-0.1 -2.3,0 -2.4,0.5 -4.5,2 -5.9,4.1 -1.1,1.7 -1.6,3.5 -1.8,5.4 -2,-0.1 -4.4,-0.9 -6.5,-0.4 -2.9,0.7 -5.6,2.4 -7.7,4.5 -4.1,4.3 -6.1,10.2 -6.6,16 -0.6,6.7 0.8,13.6 3,20 1.6,4.5 4.8,8.7 7.1,13 -3.5,2.1 -7,4.3 -10.4,6.5 -4.9,3 -9.6,6.5 -12.6,11.5 -2.4,4 -3.6,8.9 -2.2,13.5 1.1,3.5 3.6,5.3 6.4,6.9 -3.3,1.5 -6.4,3.4 -8.6,5.7 -2.8,2.9 -3.6,6 -3.9,9.3 -3.2,3 -6,6.5 -7.6,10.3 -2.3,5.6 -1,13 0.5,18.6 1.9,7.5 8.9,22.8 18.6,21.5 -1.5,3.2 -2.3,6.7 -1.7,10.6 0.4,2.5 1.3,4.2 2.7,5.5 -1.7,2 -3.1,4.4 -3.9,6 -3.8,7.8 -3.4,16.6 -2.1,25 1.5,9.6 4,17.5 9.4,25.6 3.3,4.9 7,10.1 12.2,12.3 0,0.7 -0.1,1.4 -0.6,2.3 -0.8,1.4 -2.1,2.3 -2.5,4 -0.3,1 -0.3,2.3 -0.1,3.5 -1.3,0.3 -2.6,0.8 -3.6,1.3 -4.2,2 -5.9,6.2 -6.5,10.5 -0.6,4.9 -0.9,10.6 0.7,15.3 1.1,3.3 2.9,5.4 5.2,7 -2.1,4.1 -1.7,10 0.2,13.8 2.5,4.9 8.5,7.7 13.8,10 0,0.9 0.1,1.7 0.1,2 0.2,2 0.6,4.1 0.3,6.2 -0.5,2.7 -1.7,5 -0.2,7.7 1.7,3 4.6,3.2 7.5,2.3 -0.5,1.2 -1,2.4 -1.5,3.5 -1.2,2.8 -2.8,5.8 -3,8.9 -0.2,3.6 1,7.3 1.8,10.8 0.7,3 1.2,6.1 2.8,8.8 1.6,2.7 3.9,5 5.9,7.3 2.6,3.1 5.1,6.4 8.2,9.1 2.8,2.5 7.1,5.2 11.1,5.1 0.1,1.5 0.5,2.9 1.5,4.1 0.6,0.8 1.3,1.5 2.1,2 -0.8,1 -1.5,1.9 -2.1,2.5 -3.7,4.2 -6.8,8.8 -7,14.6 -0.3,7.9 7,17.6 15.2,19.5 -0.1,1.2 -0.2,2.4 -0.3,3.6 -0.4,3.2 -1.1,6.5 -0.6,9.8 0.7,4.4 3.4,6.3 6.3,8.6 0.6,1 1.5,2 2.3,3.1 1.3,1.6 2.1,3.3 2.7,5.3 0.4,1.4 0.8,2.4 1.9,3.5 0.6,0.6 1.7,0.3 1.9,-0.5 0.1,0 0.1,-0.1 0.2,-0.1 2,-1.6 5.8,-1.3 7.2,0.8 1.3,2 0.6,5 0.6,7.3 v 0.2 c -0.3,0.4 -0.3,1 0.1,1.3 0.1,0 0.1,0.1 0.2,0.1 0.2,0.4 0.5,0.6 0.9,0.6 4.9,2.9 10.7,-0.5 15.5,2.8 3.5,2.4 3.5,6.2 3.9,10 0.2,2.6 2.7,9.4 -0.4,10.5 -0.7,0.3 -0.9,1.3 -0.2,1.7 0,0 0,0 0,0 0.1,0.2 0.4,0.4 0.6,0.3 0.6,0.2 1.1,0.3 1.7,0.3 1.7,0.8 3.9,2.5 4.8,3.1 2.4,1.4 4.9,2.6 7.4,3.7 4.1,1.9 8.5,4.5 12.9,5.4 0.1,0 0.2,0 0.2,0 0.6,0.3 1.5,0.2 1.7,-0.7 1.4,-7 12,1.8 14.1,2.8 2.7,1.3 5.2,0.4 7.9,-0.4 7.4,-2.4 11.3,-5.4 13.4,-13.1 2,-7.4 2.2,-14.6 -1.3,-21.7 -2,-4.1 -5,-7.2 -8.5,-9.9 1,-1.9 2.2,-3.5 4,-5 2.2,-1.8 5,-2.7 7.1,-4.7 1.5,-1.4 2.6,-3.4 2.7,-5.5 0,-2.3 -1.3,-4 -2.2,-5.9 2.4,-1.1 4.5,-2.8 6.4,-5.2 3.9,-5.2 5.6,-12 4.7,-18.4 -0.9,-6.5 -8.3,-17.1 -15.6,-17.4 0,-3.6 -1.3,-7.6 -2.9,-9.9 -0.7,-1 -1.6,-1.8 -2.5,-2.4 3.5,-3.5 6.2,-8.2 5.1,-12.2 -0.9,-3.4 -4.5,-6.4 -6.8,-8.8 -1.2,-1.2 -2.4,-2.6 -3.7,-3.8 2.7,-2.8 5.4,-5.5 8.3,-8.1 2,-1.8 4,-3.7 6.5,-4.8 2,-0.9 4.3,-1.3 6.2,-2.5 5,-2.9 6.4,-8.3 6.2,-13.7 2.7,0.6 6,-0.2 8.4,-1.1 4.4,-1.8 8.5,-4.4 12.1,-7.5 0.2,0.2 0.3,0.4 0.5,0.6 1,1.4 2.2,2.9 2,4.7 0,0.4 0.5,0.5 0.7,0.2 0,0.1 0,0.2 0.1,0.3 0,0.1 0.2,0.1 0.2,0 0.3,-1.9 0.2,-3.9 0.3,-5.8 0,-1.1 0,-2.1 -0.2,-3.1 0.5,-0.5 1.2,-1.1 2,-1.8 0.8,2.1 1.9,4.1 2.8,6.1 1.1,2.6 2.2,5.2 3.3,7.8 -0.1,0 -0.2,0 -0.3,0.1 -1.6,0.3 -2.8,0.6 -4.1,1.5 -3.3,2.4 -5.4,6.3 -5.5,10.3 -0.1,3.5 1.2,7.3 3.7,9.8 1.8,1.8 3.9,2.5 6.1,2.6 -5.2,7.2 -6.3,19.3 -2.1,27.1 -0.6,1 -1.1,2.1 -1.7,3.1 -1,1.9 -2.6,4.1 -2.8,6.3 -0.2,1.5 0.4,2.9 1.6,3.8 -1,4 -0.7,8.5 0.5,11.9 1.8,5 5,8.5 9.4,10.8 0,0.2 -0.1,0.4 -0.2,0.5 -0.8,1.5 -0.2,3 1,3.9 1.8,1.4 3.6,2.4 5.5,3.4 -2.7,5.4 -4,12.4 -2.8,18 1.1,5.4 4.8,8 9.2,10 0.5,0.4 1,0.8 1.4,1.3 5.4,5.1 10.8,11.3 17.4,15.1 2.8,3.4 6.1,6.1 10.9,6.9 4.4,0.7 7.2,-1.1 8.6,-3.9 1.4,0.4 2.8,0.4 4.2,0 3.9,-1.2 5.8,-5.5 6.4,-9.2 1.3,-7.6 1.6,-19.6 -6,-23.9 -3.8,-2.1 -5.4,-3.8 -5.9,-8.1 -0.4,-3.1 -0.1,-6.3 0.9,-9.3 1.5,-4.9 5.1,-8.6 4.6,-14 -0.3,-3.8 -1.7,-8.7 -5.6,-10.2 -3.7,-1.4 -6.7,-0.3 -8.7,-4.6 -0.5,-1.1 -0.9,-2.3 -1.3,-3.4 0.1,-0.4 0.3,-0.8 0.6,-1.3 1.3,-2 3.8,-3.2 5.4,-5 3,-3.4 3.6,-8.4 4.4,-12.7 0.9,-5 0.9,-9.6 0.1,-14.5 -1,-6.5 -1,-13.6 0.3,-20.1 0.1,-0.5 -0.2,-0.9 -0.6,-0.9 -0.5,-1.7 -1.6,-3.4 -3,-4.4 -0.7,-0.5 -1.5,-0.8 -2.3,-1.2 -0.1,0 -0.2,-0.1 -0.3,-0.2 0.3,-2.8 1,-5.3 1.9,-8.2 1,-2.9 1.8,-6 1,-9.1 -0.4,-1.7 -1.3,-3.1 -2.1,-4.6 -1.2,-2.4 -1.6,-4.7 -1.8,-7.4 -0.3,-3.7 0,-7.3 0,-11 3.3,-0.8 6.4,-2.7 7.5,-4.9 1.6,-3.2 1.2,-6.9 -0.3,-10.1 -1,-2.3 -2.5,-4.2 -4.1,-6.1 -1.1,-1.4 -2,-2.7 -2.6,-4.1 2.9,-1.8 5.5,-5.1 6.6,-7.5 1,-1.9 1.5,-3.8 1.7,-5.8 6.3,-4.9 8.9,-14.6 7.1,-22.5 5.1,-1.6 10.3,-5.8 13.4,-8.6 5.5,-5.1 10.2,-11.6 13.3,-18.6 3.1,0.8 6.2,1.3 9.1,1.6 6.5,0.8 12.8,0.1 18.8,-2.4 8.6,-3.6 15.4,-10.2 20.1,-18.1 0,0 0.1,0 0.1,0 0.5,0.1 0.9,0.2 1.4,0.3 2.6,7.2 10.9,12.5 18.4,11.3 4.6,-0.8 10.3,-2.7 13.1,-6.8 1.1,-1.6 1.7,-3.6 1.9,-5.7 4.9,1.2 11.3,-0.2 15.2,-1.5 4.3,-1.4 9.9,-3.9 13.8,-7.4 2.9,1.6 5.2,4.3 7.6,6.3 2.8,2.4 5.9,4.3 9.3,5.8 6.3,2.8 13.1,4 19.8,4.8 10.4,1.3 21.3,-0.6 31.6,-4 0,0 0,0 0,0 1.5,-0.2 3,0 4.5,-0.3 0.5,-0.1 0.9,-0.2 1.3,-0.3 -1.2,4.1 -2,8.7 -1.1,12.5 1.1,4.9 4.9,9 8.5,12.3 8.6,8 21,9 32.2,10.2 9.1,1 24.8,4.3 31.4,-4.3 2.2,-2.9 2.6,-6.2 2,-9.5 2,0.5 4.1,1 6.1,1.8 1.5,0.7 2.8,1.6 4.5,1.9 2,0.4 3.8,0.5 5.8,1.2 1.7,0.6 3.2,0.9 5,0.5 3.5,-0.6 6.9,-2.8 9.8,-4.8 2.1,-1.5 3.8,-2.8 6.4,-3.2 0.1,0 0.2,0 0.3,0 5.8,5.9 14.4,4.9 21,-0.8 4.1,-3.5 7.2,-8.4 9.3,-13.4 0.8,-2 1.8,-4.5 2.1,-7.1 2.9,-0.6 5.5,-2 7.8,-4.7 1.6,-1.8 3.2,-4 4.7,-6.4 2.7,-1.8 5.6,-3.2 8.8,-3.9 3.4,-0.8 10.5,-2 13.8,0.4 0,0.9 -0.7,1.8 -1.2,2.5 -1.2,1.8 -2.8,3.5 -4.9,4.1 -0.9,0.3 -2,0.3 -2.9,0.6 0,0 0,0 0,0 -0.5,0 -1.1,0.1 -1.3,0.6 -0.1,0 -0.2,0.1 -0.3,0.2 -0.1,0.1 -0.1,0.3 -0.1,0.4 0,0.1 0.1,0.1 0.1,0.2 0.2,2.8 2.9,3.6 5.4,3.9 1.4,0.2 3,-0.4 4.5,-0.5 -2,2.3 -6.1,2.8 -6.4,6.3 -0.3,3.4 3.1,4.7 5.9,5 8,0.9 17,-1.1 23.2,-6.3 1.6,-1.4 2.9,-3 4.3,-4.7 1.8,-2.2 3.5,-3 6.1,-4.1 3.5,-1.5 6.3,-4.4 8.4,-7.6 2.4,-3.7 3.2,-7.9 2.5,-12.2 -0.2,-1.1 -0.4,-2.3 -0.8,-3.5 1.8,-0.4 3.5,-0.8 5.2,-1.2 3.7,-1 7.4,-2 11.1,-3.1 1.4,-0.4 2.9,-0.7 4.4,-1.1 3.6,3.1 7.4,5.6 12.7,5.7 2.9,0.1 5.9,-0.6 8.5,-1.8 1.8,-0.9 3.2,-2.4 4.9,-3.3 2.2,-1.1 4.8,-0.7 7.1,-0.9 7.5,-0.5 14.9,-2.3 21.8,-5.3 1.3,-0.6 2.7,-1.2 4.1,-1.9 -1.7,4.2 -4.8,8 -4.9,12.9 0,1.6 1.3,2.8 2.9,2.9 9.1,0.6 17.5,-1.9 25.8,-5.4 1.9,-0.8 4.1,-1.6 6.3,-2.6 0.8,2.2 2.2,4.2 4.3,5.8 1.2,0.9 2.9,1.8 4.7,2.3 0.6,3.4 1.2,6.7 2.4,10 0.6,1.6 1.3,3.1 2.2,4.6 -1.2,3.6 -1.4,8 0.1,10.8 0.8,1.6 1.9,2.6 3.2,3.2 -0.7,4.5 0.9,10.2 1.8,14.1 0.7,2.8 1.2,6.1 2.8,8.5 0.6,1 1.4,1.5 2.2,1.9 -0.1,8.2 -0.2,16.4 0.6,24.6 -3.5,2 -6.8,4.8 -9.1,7.4 -4,4.5 -6.6,10.5 -6.3,16.6 0.4,7.6 5.7,16 12.6,21.2 -3.4,3.1 -6.5,6.7 -8.7,10 -1.2,1.7 -2.1,3.5 -2.9,5.2 -0.9,1.4 -1.7,2.9 -2.2,4.4 -1.5,4 -2.3,9.3 0.8,12.8 1.7,1.9 4.6,3.4 7.5,4.2 -0.5,4.6 -0.1,9.1 1,13.5 -0.3,1.5 -0.6,3 -0.9,4.4 -1.2,5.9 -1.9,11.9 -1.9,17.9 0,3.3 0.9,8.2 3.1,11.7 -1.8,9.8 -6.3,34.4 -7,38.4 -0.8,4.9 -1.3,11.6 2.7,16.7 3.3,4.2 12.5,19.3 15.6,24.3 0,0 0,0 0,0 0.5,0.9 0.8,1.5 1.1,1.8 0,0 0,0 0,0 0.2,0.3 0.3,0.4 0.4,0.5 0,0 0.1,0 0.1,0.1 0,0 0,0 0,0 0.5,0.2 1.1,0 1.3,-0.7 2.9,-7.7 8.1,-12.2 14.2,-17.3 1.9,-1.5 3.6,-4.2 4.7,-6.9 7.9,-1.7 13.3,-7.8 17.7,-14.3 0.1,0 0.1,-0.1 0.2,-0.1 1.5,-1.1 2.9,-2.3 3.7,-4 0.7,-1.7 0.9,-3.6 0.7,-5.6 v 0 c 0.1,-0.9 0.1,-1.8 0,-2.8 -0.2,-2.8 -0.4,-5.5 -0.8,-8.1 1.3,-0.6 2.6,-1.5 3.9,-1.8 2.4,-0.5 4.7,-0.8 6.7,-2.2 2.3,-0.6 4.5,-1.7 6.3,-3.7 2.6,-2.9 3.2,-7.6 2.9,-12.2 0.3,-1 1.3,-2 2.1,-2.4 0.7,-0.4 1,-0.3 1.7,0 0.2,0.1 0.5,0.2 0.7,0.3 0.4,0.6 0.8,1.2 1.3,1.8 0.4,0.4 1,0.2 1.1,-0.3 0.8,-2.6 -1.2,-5.9 -1.8,-8.5 -0.2,-1.1 -0.4,-2.1 -0.3,-3.1 1.3,-3 5.3,-3.2 6.5,-6.3 1.4,-3.6 -0.2,-9.2 4.9,-10.6 3.1,-0.8 5.1,2.3 8.2,2.5 2.9,0.2 5.4,-1.8 7.9,-3 0.8,-0.4 1.3,-1.1 1.4,-1.9 1.6,-3 2,-5.8 4.8,-8.2 1.8,-1.5 2.9,-3.2 2.9,-5.7 -0.1,-3.2 -2.3,-6.3 -5,-8.5 -0.1,-0.2 -0.2,-0.3 -0.3,-0.5 -1.3,-2 -1.9,-4.7 -1.6,-7.1 0.4,-2.6 2,-5 4.7,-5.5 2.8,-0.6 6.4,2.2 5.8,5.3 -0.1,0.6 0.8,1 1,0.4 0.1,-0.2 0.2,-0.5 0.3,-0.8 0.2,0 0.4,0 0.6,-0.2 3.7,-3.7 7.9,-6.2 10.1,-11.2 0.7,-1.6 1.3,-3.5 1.6,-5.4 0.3,0.1 0.7,0.2 1.1,0.2 1.6,0.4 3.1,0.1 4,-1.9 0.6,-1.4 0.3,-3.2 0.3,-4.7 0,-0.9 0,-1.7 0.1,-2.6 1.7,-6 -0.4,-15.8 -2.1,-19.1 -2.2,-4.4 -5.7,-8.2 -9.8,-10.7 -2.3,-1.4 -4.9,-1.9 -7.2,-3.1 -1.5,-0.7 -1.9,-1.3 -1.7,-2.2 1,-0.6 1.9,-1.1 2.1,-1.3 1.1,-0.5 2.1,-1 3.1,-1.8 2.6,-1.8 4.5,-4.4 5.9,-7.2 2.5,-5.2 2.7,-10.8 2.1,-16.3 0.7,-0.4 1.4,-0.8 2,-1.2 2.5,-1.5 4.4,-3.7 5.2,-6.5 1.8,-6.4 -2.7,-9.3 -5.6,-13.6 3.9,-2.5 7.8,-5.6 10.2,-9.2 1.3,-2 2.2,-4 2.7,-6.2 3.3,-1.4 6.3,-4.1 7.9,-6.7 1.8,-2.8 2.3,-6 1.9,-9.3 -0.7,-5.5 -1.3,-10.4 -1.3,-15.9 0,-7.7 -1.9,-14.9 -8,-20 -2.6,-2.2 -5.5,-3.8 -8.8,-4.7 -2.6,-0.7 -5.8,-0.3 -8.7,-0.7 2.2,-5.2 4.3,-10.7 5.8,-16.2 1.4,-4.9 2.3,-10.2 0.4,-15.1 -2,-5.5 -8.3,-10.9 -14.5,-11.4 1,-3.9 1.3,-8 -0.6,-11.8 -1.7,-3.1 -4.5,-4.7 -7.6,-5.7 11.4,-11.1 15.9,-27.4 15.3,-43.5 -0.4,-10 -1.9,-20.3 -8.1,-28.5 -0.4,-0.6 -0.9,-1.2 -1.4,-1.7 -3.2,0.4 -6.1,2.1 -6.3,4.6 -0.4,-0.1 -1,0.3 -0.8,0.8 2,5 5.6,9.1 7.3,14.4 2,6 2.7,12.5 2.6,18.8 -0.1,10.6 -2.5,20.6 -10.6,25.9 -5.5,2.5 -11.5,2.6 -11.7,-5.4 -0.2,-8.5 7.8,-21 4.7,-30 -0.4,-2.6 -1.7,-3.8 -3.1,-6 -0.4,-0.6 -1.4,-0.2 -1.2,0.5 1.1,3.4 1.3,7.3 -0.1,10.4 -0.3,0.3 -0.7,0.6 -1.1,0.8 -3.2,1.9 -7.4,1.1 -10.4,-0.5 -0.7,-0.4 -1.2,0.6 -0.6,1 0.2,0.2 0.5,0.4 0.8,0.5 0,0 0,0.1 0.1,0.1 0.6,0.5 1.3,1 2,1.4 3,3.8 3.5,10.1 3.9,14.6 0.3,4 -1.5,7.4 -1.6,11.2 0,4.9 1.2,9 0.4,14 -0.7,4.4 -1.8,8.5 -2,13 -0.1,1.1 1.1,1.3 1.8,0.8 0.8,3.1 3.1,4.9 6.4,6 2.4,0.8 5.2,1.5 8.1,1.8 0.6,1.6 1.2,3.2 2.1,4.7 0.9,1.5 2.2,3.6 3.9,4.2 0.7,0.9 1.9,1.2 2.8,0.1 3,-3.8 9.2,-4.8 12.2,-1.5 0.9,1.6 0.8,2.9 0.4,4.8 -0.7,3.5 -5.7,18.3 -11.2,16.6 -0.2,-0.1 -0.5,-0.1 -0.7,0 -0.9,-0.3 -2.1,0.4 -1.7,1.5 0.4,1.2 0.3,2.5 0.5,3.7 0.2,1.4 0.9,2.5 1.7,3.6 0.9,1.3 1.9,2.4 3.1,3.4 -0.3,5.1 0.7,10.5 6.8,11.3 4.6,0.6 7.8,-2.5 12,1.1 1.8,1.5 3,3.5 4.1,5.5 0.5,3.4 0.3,6.7 -1.9,9.1 -2.1,2.4 -6.3,1.3 -8.8,0.2 -4.3,-1.8 -5.3,-5.2 -6.8,-9.3 -0.3,-0.9 -1.5,-1.2 -2.2,-0.7 0,0 0,0 0,0 -0.3,-0.2 -0.6,-0.3 -1,-0.4 0,0 0,0 0,0 -0.2,-0.2 -0.4,-0.4 -0.7,-0.4 0,0 -0.1,0 -0.1,0 -4.1,-5.9 -10.5,-13 -16.2,-13.5 2.7,-6.5 -1,-16.1 -7.3,-19.1 -1.4,-0.7 -3.6,0.9 -2.5,2.5 2.5,3.4 3.7,6.1 4,10.3 0.2,2.8 0.8,6.5 -1,8.8 -1.1,1.4 0.2,3.4 2,2.5 0.4,-0.2 0.9,-0.5 1.3,-0.7 3.9,2.2 6.6,4.7 9.5,8.7 3,4.1 6.2,8.2 7.6,13.2 1.2,4.7 2.4,9.8 2.8,14.7 -0.8,1.3 -1.6,2.6 -2.2,4 -1.3,3.6 -1.1,7.5 -2.3,11.1 -1.3,3.7 -4.1,5.6 -7.2,7.6 -2.4,1.6 -5.9,3.2 -6.7,6.2 -0.4,1.5 0.3,3.1 1.4,4 -1.8,1.7 -3.4,3.6 -4.5,4.9 -2.6,3.2 -4.8,6.5 -6.1,10.3 -1.4,0.1 -2.8,0.3 -4.2,0.6 -2.7,0.6 -5.1,2.7 -6.9,5 -0.6,0 -1.2,0.3 -1.6,0.9 -1.7,2.5 -4,5.2 -4.9,8.1 -0.4,1.2 -0.5,2.3 -1.1,3.5 -0.4,0.8 -0.5,1.8 0,2.6 1.4,2 3.8,2.6 4.8,5 1.3,2.9 0.8,7 0.6,10.1 -0.3,3.5 -1,7.3 -2.7,10.4 -1.3,2.3 -2.9,2.9 -4.8,4.5 -0.3,0.2 -0.2,0.7 0,0.9 0.1,0.1 0.2,0.2 0.3,0.2 0,0.3 0.1,0.6 0.2,0.9 0.9,2 1.3,2.9 1.2,4.5 -0.2,2.2 -1.4,4.5 -2.1,6.6 -1.9,5.4 -2.6,11.7 -7.8,14.9 -2.3,1.4 -5,3 -7.6,3.5 -3.3,0.6 -5.7,-1.1 -8,-3.2 -3.3,-3.1 -4.6,-7 -3,-11 2.8,-1.6 5.3,-3.7 8.3,-5.8 0.4,-0.3 0.1,-1 -0.4,-0.7 -3.8,2.1 -11.9,3.2 -16.2,2.3 -1.2,-0.3 -2.2,-0.8 -3.1,-1.6 3.4,-1.3 6.9,-2.3 9.9,-4.5 3.4,-2.5 6.4,-5.8 8.4,-9.5 1.1,-2 1.9,-4.1 2.3,-6.3 0.3,-1.4 0.1,-2.6 -0.1,-3.8 2.9,-4.1 6.3,-11.8 4.1,-15.7 -0.1,-0.2 -0.4,-0.3 -0.6,-0.3 -4.3,0.8 -5.9,6.2 -7.8,9.5 -0.9,1.4 -2.3,2.6 -3.9,3.4 2.6,-3.5 4.3,-7.8 4.8,-12.1 0.6,-5.8 -1.2,-12 -5.5,-16.1 -2.7,-2.6 -5.9,-3.8 -9.3,-4.2 0,0 0,-0.1 0,-0.1 0.3,-2.4 0.6,-4.8 0.9,-7.2 2.3,-0.3 4.7,-0.8 6.6,-1.4 5,-1.6 8.8,-5.1 11.2,-9.8 2.6,-5.1 3.2,-10.8 3.5,-16.5 0.2,-5.6 0.8,-12.2 -1.7,-17.4 -0.7,-1.4 -2.8,-1.2 -3.5,0 -3.5,6.1 -2.5,13.8 -3.1,20.8 -2.6,5.4 -5.1,10.5 -9.7,14.1 -0.8,0.2 -1.6,0.3 -2.4,0.4 0,-2.7 -0.3,-5.4 -1.1,-8 -1,-3 -3.1,-5.3 -3.8,-8.3 -1.7,-7.1 -2,-13.7 -7.5,-19.3 -1,-1 -2.1,-1.9 -3.3,-2.7 0.9,-4.7 0.8,-9.8 0.8,-13.6 -0.2,-7.8 -4,-14.8 -9.4,-20.3 -0.8,-0.8 -1.7,-1.6 -2.7,-2.3 1.2,-1 2.4,-2 3.4,-2.9 4.2,-3.8 13.5,-10.9 8.8,-17.3 -0.4,-0.6 -1.1,-1.1 -1.8,-1 -0.1,0 -0.2,0 -0.3,0 -0.1,-0.6 -0.1,-1.3 -0.1,-2 -0.1,-2.8 -4.2,-2.8 -4.3,0 -0.4,7.2 -8.4,13.2 -14,16.8 -1.1,0.7 -2.2,1.3 -3.4,1.8 -2.1,-0.3 -4.1,-0.4 -6.1,-0.3 -3.6,-5.7 -10.2,-9 -17.2,-8.1 -5.1,0.7 -9.8,3 -13.8,6.3 -0.6,-0.4 -1.2,-0.7 -1.8,-1 -0.2,-0.1 -0.5,-0.3 -0.8,-0.4 3.1,-1.5 5.9,-3.4 8.7,-5.4 2.2,-1.6 4.1,-3.4 6.2,-5 1.8,-1.4 3.7,-2.4 4.7,-4.5 0.5,-1 0.1,-2.1 -1,-2.5 -3.8,-1.2 -8.1,1.9 -11.4,3.6 -4.2,2.2 -7.9,5.4 -12.3,7.1 -5.3,2.1 -11.4,0.9 -17,0.7 -5.9,-0.3 -11.7,-0.4 -17.6,0.7 -2.7,0.5 -3.2,3.7 -1.8,5.6 -1.9,1.7 -3.6,3.8 -5.2,5.9 -1.9,2.5 -3.1,4.9 -3.7,7.4 -1.9,-0.2 -3.9,-0.3 -5.6,-0.4 -1.3,-0.1 -2.6,-0.1 -3.8,-0.2 5.8,-5.8 13.1,-16.1 10.9,-24.6 -0.4,-1.4 -2.2,-1.5 -2.9,-0.4 -4.3,6.3 -8.3,13.1 -13.9,18.4 -3,2.8 -6.7,4 -10.5,5.1 -1.2,-0.2 -2.4,-0.4 -3.6,-0.6 -3.4,-0.7 -6.7,-1.3 -10.2,-0.5 -2.6,0.6 -4.8,1.6 -6.6,3.1 -0.2,-0.4 -0.5,-0.8 -0.8,-1.1 -1.9,-2.3 -5.7,-3.9 -8.5,-2.1 -1.3,0.8 -1.7,2 -2.3,3.3 -0.7,1.6 -2,2.1 -3.4,3.1 -1.1,0.8 -2,1.6 -2.8,2.5 -3.5,-0.7 -7.4,-0.6 -10.1,0.4 -2,0.7 -3.4,1.8 -4.6,3.2 -2.2,-1.5 -4.6,-2.4 -7,-1.9 -3.3,0.7 -2.9,3.2 -4.8,5.2 -1.1,1.1 -2.8,1.6 -4.6,2.1 -1.4,-0.5 -2.8,-1 -4,-1.9 -3.8,-2.5 -6.2,-3.5 -10.7,-4.3 -4.5,-0.8 -7.4,-3.6 -11.3,-5.6 -3.7,-1.9 -8.2,-3 -11.2,-6 -0.2,-0.2 -0.5,-0.1 -0.7,0.1 -2,3.3 -0.7,6.4 2,9 2.7,2.6 6.8,5.2 10.4,7.3 -3.1,5.7 -4.8,12.5 -9.1,17.2 -3.1,3.3 -5.6,6.8 -7.7,10.5 -6,-1 -12.7,1.4 -17.7,5.3 -3.5,-2 -7,-4.1 -9,-7.9 -3.6,-6.5 -3.2,-16.7 -1.2,-23.7 1.5,-5 8.6,-6 4.8,-12 -2,-3.1 -4.3,-5.4 -5.5,-9 -1.2,-3.8 -1.6,-8.5 -0.7,-12.4 0.6,-2.5 -3.3,-4.5 -4.4,-1.9 -3.1,7.4 -3.5,14.6 0.8,21.8 1,1.6 2.2,3.4 3.6,4.6 -0.4,0.3 -0.9,0.9 -1.2,1.2 -2.4,2.7 -4.5,7.5 -5.7,10.9 -2.5,7.2 -2.2,15.1 0.4,21.9 -1.5,0.4 -2.9,1.1 -4.3,1.6 -3.9,1.6 -7.8,3.4 -11.5,5.3 -3.8,2 -7.6,4 -11,6.6 -1,0.8 -2,1.6 -2.9,2.5 -1.9,-1.9 -4.1,-3.5 -6.7,-4.3 -2,-0.6 -4,-0.7 -6.1,-0.4 -2.6,0.5 -4.5,2.5 -7.3,1.6 -3.8,-1.2 -7.6,-5.2 -9,-8.8 -1.7,-4.2 -0.1,-8.7 -1.1,-12.9 1.1,-1 1.9,-2.3 2.4,-3.6 0.5,-1.5 -1.2,-2.4 -2.4,-1.9 -0.6,0.2 -1.2,0.4 -1.9,0.5 -0.8,-0.4 -1.7,-0.6 -2.7,-0.4 -4,0.9 -9,3 -12.9,2.1 -4.1,-0.9 -7.5,-1.1 -11.8,-0.8 -4.3,0.3 -7.9,-0.1 -11,-3.4 -2.5,-2.6 -2.9,-7 -6,-8.8 -0.4,-0.2 -1,-0.3 -1.5,0 -3.6,2.2 -2.5,7.9 -0.9,11.2 2.3,4.8 6.9,8.3 12,9.7 3,0.8 6.1,0.8 9.1,0.8 -1.5,2.4 -3.1,4.7 -5.7,6.6 -5.3,4 -14,3.9 -20.2,2.7 -4.2,-0.8 -8.2,-2.1 -12,-3.8 2.7,0.3 5.4,0.4 7.8,0.1 1.6,-0.2 2.8,-2.6 1,-3.5 -6.1,-3 -12.4,-4.6 -18.2,-8.4 -2.5,-1.6 -5.2,-3.8 -6.8,-6.3 -1.5,-2.3 -1.2,-4.7 -0.7,-7.2 0.5,-0.2 1,-0.5 1.5,-0.9 1.3,-1 2.2,-2.5 3,-4 2.2,-0.9 3.3,-3.5 2.2,-6 -0.1,-0.2 -0.2,-0.5 -0.4,-0.7 0.1,-0.9 0.2,-1.8 0.3,-2.6 0.4,-4.1 1,-10.3 -2.8,-13 -2.4,-1.7 -3.9,-0.8 -2.9,-4.3 0.7,-2.4 2.6,-5.1 3.9,-7.2 2.1,-3.6 6.4,-8.1 5.6,-12.5 -0.1,-0.4 -0.4,-0.7 -0.8,-0.8 -4.3,-1.4 -8.2,3.2 -10.4,6.2 -3,4.2 -6.7,9.7 -7.7,14.8 -0.8,3.8 1.3,9.6 5.3,11.2 0,0.2 0,0.5 0,0.8 -5.7,-2.1 -12.3,-2.3 -16.7,0.3 -3.8,2.2 -6.5,6.3 -7.3,10.6 -0.1,0.6 -0.2,1.3 -0.2,1.9 -2.1,-2.1 -1.7,-4.1 -2.6,-6.7 -2,-6 -8.5,-2.6 -12.7,-4.6 -5.7,-2.8 -6.1,-10.6 -6.1,-16.1 0,-6 2.4,-12.4 0.2,-18.1 -0.4,-1.1 -1.8,-2.1 -3,-1.2 -7.9,5.9 -7.1,21.4 -5.2,30.1 1,4.5 3.2,8.9 6.7,12 -2.1,1.7 -3.9,3.9 -5.5,6.1 -1.3,1.9 -2.7,5.4 -4.7,6.5 -2.9,1.7 -5.8,-1 -7.9,-2.7 -3.5,-2.8 -7,-5.4 -11.7,-5.3 -3.4,0 -8.8,1.7 -8.8,5.7 -0.9,2.9 -0.6,6 -1.4,9 -0.7,2.8 -2,5.4 -3.5,7.8 -3.5,5.2 -8.5,9.8 -13.4,13.8 -5.1,4.2 -12.2,4.3 -18.2,2.2 -2.5,-0.8 -4.6,-2.4 -6.7,-4 2.4,-3 -0.6,-9.2 -4.8,-7.7 -1.9,0.1 -3.9,0.3 -5.7,0 -2.2,-0.3 -3.1,-0.9 -4.7,-2.4 -3.2,-3 -4.6,-6.2 -5,-10.5 -0.8,-8.6 6.5,-13.4 10.5,-20 1.2,-2 -0.8,-5.1 -3.2,-4.2 -1.2,0.5 -2.4,1.1 -3.5,1.9 -0.2,-0.9 -0.4,-1.7 -0.8,-2.4 -0.8,-1.6 -2.8,-4.7 -4.9,-3.1 -1.2,1 -2,3.2 -2.4,4.7 0,0.1 -0.1,0.2 -0.1,0.3 -5,-0.9 -10.1,-1.2 -13.9,-5.2 -3.7,-3.9 -4.4,-9.9 -8.9,-13.1 -1.1,-0.8 -3.1,-0.3 -3.7,1 -1,2 -1.2,4.2 -0.8,6.5 -3.5,-0.4 -7,-0.9 -9.8,-3.5 -4.1,-3.6 -7.2,-9.4 -8.9,-14.5 -0.8,-2.3 -4.7,-2.1 -4.5,0.6 1.4,14.8 11.4,26.1 26.7,25.8 1.3,1.9 2.7,3.7 4.2,5 5.1,4.8 12.4,6.9 19.4,6.6 -0.1,0.1 -0.2,0.3 -0.3,0.4 -3.6,5.1 -4.2,10.4 -3.8,16.5 0.5,6.1 3.7,10.7 8.1,14.8 2.7,2.4 5.5,3.4 8.5,3.8 0,0.1 0,0.2 0.1,0.3 0.6,2.3 1.5,4.2 2.8,6 -0.5,2.4 -0.8,4.9 -2,7.1 -1.8,3.3 -5.7,6.2 -8.6,8.3 -5.1,3.6 -18.7,13.5 -23.5,5.4 0,-0.2 -0.1,-0.5 -0.2,-0.7 -0.1,-0.5 -0.8,-0.4 -0.9,0 -1,2.9 -1.2,6.5 0,9.4 0.5,1.4 1.4,3 2.5,4.4 0.3,2.2 0.1,4.5 -1.9,5.2 -1.5,0.5 -1,2.8 0.4,2.7 2.8,3.8 2.6,9.7 1.2,14 -0.8,2.2 -2,4.4 -3.6,6.1 -1,1.1 -3.1,3 -5.2,4.1 -1.3,-1.3 -3.2,-2 -5,-2.8 -1.2,-0.5 -3,-0.9 -3.8,-1.9 -0.5,-0.6 -0.7,-1.3 -0.7,-2.1 1.6,-2.1 3.3,-4.2 4.3,-6.7 0.8,-1.8 -1.1,-3.8 -2.9,-3.8 -7,0 -13,-0.9 -14.5,-8.8 -1.3,-6.4 -1,-14 0.6,-20.3 1.3,-5.5 4.4,-11.4 7.6,-16.2 3.2,-4.9 7.1,-8.1 8.9,-13.9 0.3,-1.1 -1,-1.7 -1.8,-1 0,0 0,0 0,0 -6.6,0.1 -12.5,9.6 -15.8,14.4 -4.5,6.4 -7.6,13.4 -8.5,21.2 -1.1,10.8 -0.1,32.5 13.7,33.1 -0.3,1.6 -0.7,3.2 -0.5,4.9 0.2,2.3 1.1,4.2 2.5,6 1.2,1.5 2.6,2.8 4.2,3.7 -0.7,5.1 1.2,10.8 4.2,15.5 -0.7,-0.5 -1.4,-1 -2,-1.6 -0.3,-0.3 -0.7,-0.4 -1.1,-0.4 -0.6,-0.6 -1.2,-1.2 -1.9,-1.8 -0.5,-0.4 -1.3,0.1 -1,0.8 1,2 1.6,4.2 1.9,6.5 0,6.1 0.5,13.7 -6.7,14.7 -4,0.5 -8.5,0.8 -11.2,-2.5 -2.4,-2.9 -3.6,-8.4 -3.3,-12.1 0.1,-1.2 -1.1,-1.7 -2.1,-1.5 -0.2,-0.1 -0.4,-0.2 -0.6,-0.2 -4.2,-1.4 -9.2,-0.5 -12.4,2.6 -2.3,2.2 -3.3,4.8 -3.7,7.7 -2,-0.7 -4,-1.1 -6.1,-1 -1.2,0 -2.4,0.3 -2.9,-0.1 -0.6,-0.5 -1.8,-3 -2.3,-3.9 -2.2,-3.4 -3.7,-6.8 -4.2,-10.8 -0.1,-0.9 -1.2,-2 -2.1,-2.1 -4.9,-0.7 -9.8,-1.4 -14.5,-2.8 -3.4,-1 -6.5,-2.3 -7.9,-5.8 -0.8,-2 -1.1,-4.2 -2,-6.1 -2.2,-4.5 -6.7,-3.6 -9.1,-0.5 -2.4,-2.8 -4.4,-6.1 -5.8,-9.5 -0.1,-0.5 -0.1,-0.9 -0.2,-1.4 -0.6,-5.8 -0.4,-11.7 4,-15.8 0.7,-0.7 0.4,-1.8 -0.3,-2.2 -9.4,-6.2 -10,15.4 -9.5,19.7 0.6,4.7 1.7,10.4 5.1,14 2.1,2.2 5.9,3.8 8.7,2.6 -0.7,2 -1.5,4.5 -1.7,6.8 -2.4,-0.6 -4.8,-0.8 -6.8,-0.8 -2.7,0 -4.4,0.9 -5.6,2.4 -0.9,-1.4 -1.9,-2.7 -3,-3.8 -3.9,-3.9 -9.3,-6 -13.3,-9.9 -9,-8.7 -11.5,-19.9 -8.1,-31.6 0.8,-0.2 1.3,-1.3 0.6,-2 0,0 0,-0.1 -0.1,-0.1 -0.1,-0.5 -0.5,-0.9 -0.9,-1.1 -2.9,-3.6 -4.3,-8.3 -4.7,-12.9 -0.4,-4.9 1.6,-9.1 2.2,-13.7 0.1,0 0.2,0.1 0.3,0.1 0.8,0.3 1.5,-0.9 0.9,-1.5 -4.5,-4.3 -3.3,-9.9 -0.9,-15 0,-0.1 0.1,-0.1 0.1,-0.2 1.5,-1.7 3.2,-3.2 4.7,-5.2 2.3,-3.1 3.1,-6.8 5.8,-9.7 3,-3.2 6.9,-5.8 11,-7.7 0.5,-0.2 1,-0.3 1.6,-0.4 3.2,-0.8 6.5,-0.9 9.7,-1.4 1.5,0.1 3,-0.3 4.1,-1 0.3,-0.1 0.6,-0.2 1,-0.4 1.5,-0.6 1.7,-1.9 1.2,-3.1 0.1,-0.7 0.1,-1.6 0,-2.5 0,0 0,0 0,0 0,-0.9 -0.5,-1.8 -1.7,-2.1 -5.9,-2 -9,-6.1 -7.4,-12.4 0.8,-3.1 3.7,-7 1.9,-10.2 -1.6,-2.8 -4.9,-2.4 -7.8,-2.5 -6,-0.4 -11.6,-1.2 -16.1,-5.6 -4.5,-4.4 -7.1,-9.1 -7.2,-15.5 -0.1,-5.3 0.2,-10.7 1.4,-15.9 2.3,-10.1 8.3,-18 16.5,-24.2 0.5,-0.4 0.2,-1.2 -0.5,-1.1 0,0 -0.1,0 -0.1,0 -0.2,-0.2 -0.3,-0.3 -0.6,-0.3 -4.4,-0.5 -9.6,-5.7 -12.1,-9.3 -1,-1.5 -1.7,-3.1 -2,-4.9 -0.4,-12.9 4.1,-25.7 10.4,-36.9 3,-5.3 8.3,-9.8 12.8,-13.8 5.2,-4.5 10.9,-8 17.7,-9.5 1.5,-0.3 1.7,-2.2 0.9,-3.2 1.3,-2.6 -1.6,-4.5 -3.7,-5 -4.5,-1.2 -9,0.7 -12.6,3.3 -8.5,6.1 -15.3,15.1 -20.3,24.1 -3.3,5.9 -6.1,12.4 -7.1,19.1 -2,6.8 -2.9,13.9 -2,20.8 0.6,4.7 2.5,8.5 6.2,11.6 0.6,0.5 1.3,1 1.9,1.5 -5.7,4.9 -9.4,11.7 -11.8,18.7 -1.5,4.5 -2.9,9.1 -3.2,13.9 -0.3,4.5 0.9,8.9 1.9,13.3 1.8,8.1 4,14.8 10.3,20.5 4.7,4.2 10.2,6.9 16.2,7.9 -0.4,2.9 -0.4,6 -0.1,9 -6.3,-1 -13,-0.5 -18.4,3.3 -4.2,2.9 -6,6.7 -6.8,11 -1.5,-0.1 -2.9,-0.1 -4.1,-0.4 -2.4,-0.6 -5.5,-1.4 -7.3,-3.3 -1.7,-1.9 -1.2,-4.2 -1.8,-6.5 -0.9,-3.7 -3.5,-3.8 -5.8,-6.3 -2.8,-3 -3.9,-7.9 -4.5,-12.4 0.1,-1.4 0.1,-2.8 -0.2,-4.2 0,-0.2 -0.2,-0.3 -0.3,-0.4 0,-0.1 0,-0.2 0,-0.2 -0.1,-0.8 -1.3,-1.1 -1.5,-0.2 -0.1,0.4 -0.2,0.8 -0.2,1.2 -3,2.5 -3.7,7.5 -3.5,11.1 0.2,5.8 3,10.2 5.4,15.3 2.5,5.2 5.2,15.5 10.6,20.3 -2.7,2.6 -4.8,6.3 -6.6,9.3 -1.3,2.2 -2.3,4.4 -3.2,6.7 -2.1,-1.1 -3.3,-4.5 -4.5,-6.6 -1.7,-3.2 -3.2,-6.4 -4.3,-9.8 -0.9,-2.6 -5,-3 -5.7,0 -0.4,1.8 -0.6,3.5 -0.6,5.2 -1,-0.4 -2,-0.9 -2.8,-1.6 -2.5,-2.2 -4,-5.4 -4.8,-8.6 -1.3,-5.1 -2.1,-12 -0.1,-17.2 0.9,-0.5 1.4,-1.5 1.2,-2.6 0,-0.3 -0.1,-0.6 -0.3,-0.8 0,-0.1 -0.1,-0.1 -0.1,-0.2 -0.4,-0.6 -0.9,-0.9 -1.5,-1.1 -0.9,-0.9 -2.9,-6 -3.3,-6.9 -1.2,-2.8 -2.1,-5.6 -2.6,-8.6 -0.5,-2.8 -0.5,-5.5 -0.5,-8.3 0.5,-1 1.1,-1.7 2.5,-1.8 1.3,-0.2 2.6,0.4 3.9,0.6 0.2,0.8 1.3,0.6 1.6,-0.1 1.3,-3.1 1.5,-6.5 3,-9.6 1.2,-2.5 2.7,-4.4 4.6,-6.1 0.3,0 0.6,-0.1 0.9,-0.1 1.3,-0.2 1,-2.3 -0.3,-2.3 -7.9,0.1 -17.8,-6.1 -19.3,-14.5 -0.7,-4 0.3,-8.1 3.1,-11.1 1.8,-1.9 6.8,-6 9.5,-6.1 0.4,0 0.7,-0.2 0.9,-0.4 1,0.5 1.9,-1.1 0.9,-1.6 -7.5,-3.7 -9,-13.4 -5.4,-20.3 3.1,-5.9 8.6,-8.4 14.3,-11 0.8,0.3 1.8,-0.2 1.8,-1.1 0,-2.4 -0.4,-4.7 -0.6,-7.1 -0.1,-0.9 -0.1,-1.9 0.1,-2.9 0.1,-0.4 0.4,-2.1 0.6,-2.3 0,0 0,0 0,0 0,0 0.1,-0.1 0.1,-0.1 0,0 0,0 0,0 0.5,-0.6 -0.2,-1.4 -0.8,-1.4 -0.2,0 -0.3,0 -0.5,0 -3,-2.5 -5.6,-4.5 -7,-8.6 -1.5,-4.7 -1,-10.2 0.1,-14.9 1.1,-4.7 3,-9.1 5.6,-13.1 1.4,-2.1 2.9,-4.2 4.7,-6 2.1,-2.1 8.4,-7.4 10.5,-0.7 0.1,0.3 0.3,0.5 0.5,0.7 0.2,0.3 0.6,0.5 1.1,0.4 4.2,-1.3 7.5,0.6 10.6,2.8 1.2,1.3 2.3,2.5 3.7,3.6 0.6,0.5 1.5,0 1.3,-0.7 0.3,-0.8 0.1,-1.6 0.2,-2.5 0.1,-1.1 0,-2.3 -0.4,-3.3 -0.3,-0.8 -0.8,-1.3 -1.3,-1.8 -2.3,-7.8 12.9,-12 17.2,-6.2 0.5,0.6 1.4,0.3 1.5,-0.3 0.2,-0.1 0.3,-0.2 0.4,-0.4 0.7,-3.8 1.3,-7.2 4.7,-9.6 2.9,-2 6.6,-1.7 9.5,-3.7 2.4,-1.7 4,-4.6 4.5,-7.6 2.7,-3.7 5.7,-4.4 9.5,-6.6 3.5,-2.1 5.8,-5.3 9.9,-6.5 2.8,-0.8 5.8,-0.8 8.7,-0.9 1.7,0.4 3.5,0.4 5.4,0 0.9,-0.2 0.5,-1.4 -0.4,-1.3 -3.3,0.4 -6,-1.3 -8.3,-3.4 -0.9,-0.8 -2,-1.6 -2.5,-2.6 -0.4,-0.9 -0.1,-1.7 -0.6,-2.6 0,0 -0.1,-0.1 -0.1,-0.1 -0.2,-0.2 -0.6,-0.2 -0.8,0.1 0,0.1 -0.1,0.1 -0.1,0.2 -0.5,0.3 -0.8,0.7 -0.9,1.1 -4.9,5 -13.5,-0.3 -15.6,-6.2 -1.8,-4.8 -1.4,-10.5 -0.1,-15.3 3,-10.8 11.8,-20.9 23.8,-19 1,0.2 1.9,-1 1.3,-1.8 -0.7,-8.8 0.8,-15.7 5.9,-23.1 5,-7.3 12.4,-12.5 20.1,-16.7 7.7,-4.1 15.8,-7.8 24,-10.7 5.1,-1.8 26.3,-9.6 24.8,2.4 -0.1,0.7 0.9,0.8 1.2,0.3 0,-0.1 0.1,-0.1 0.1,-0.2 3,-2.8 5,-5.9 8.6,-8.2 4.1,-2.6 10,-4.8 14.9,-4.1 0.5,0.1 0.9,-0.1 1.2,-0.4 0.1,0 0.1,-0.1 0.2,-0.1 3.1,-2.6 5.6,-5.3 9.2,-7.2 3.2,-1.7 6.4,-2.4 9.8,-2.9 0.7,2.2 1.6,4.3 3.1,6.2 1.6,2.1 4.5,5.5 7.4,5.7 0,0.2 0.1,0.4 0.1,0.6 0.1,0.2 0.4,0.3 0.6,0.2 2.9,-3.3 4.6,-7.6 7.5,-11 1.7,-1.9 3.6,-3.5 5.9,-4.7 2.4,-1.2 5.2,-1.5 7.4,-3 0,0 0,-0.1 0,-0.1 0,0 0.1,-0.1 0.1,-0.1 0.1,0 0.1,0 0.2,0 0,-0.1 0,-0.1 0,-0.2 0.1,-0.2 -0.2,-0.2 -0.3,-0.1 -2.2,-4.2 -4.4,-8.9 -3.1,-13.7 1.8,-6.3 7.6,-8.4 13.4,-6.4 3.8,1.3 6.6,1.3 10.6,1.2 3.5,0 11.1,1.3 12.5,5.5 0.1,0.3 0.5,0.2 0.5,-0.1 0,0 0,0 0,0 0,0 0.1,0 0.1,-0.1 0.9,-1 1.7,-2.1 2.5,-3.2 0.7,-0.9 1.2,-2 1.9,-2.9 0.9,-1 2.3,-1.6 3.6,-1.7 1.7,-0.1 2.5,0.8 3.8,1.4 0.6,0.2 1.3,0.1 1.7,-0.3 0.3,-0.1 0.5,-0.2 0.7,-0.4 3.4,-3.8 9.9,-4.6 14.7,-4.2 4.7,0.4 8.2,3.2 12.6,4.2 4.8,1.1 9.8,-0.6 13.5,-3.6 2,3 3.5,6.2 6.1,8.7 2.6,2.6 5.6,3.9 9.2,4.3 3.6,0.4 7.1,0.5 10.1,-1.7 1.6,-1.2 2.9,-2.7 4.2,-4.1 0.9,-0.9 1.9,-1.9 2.8,-2.9 1.4,-0.1 2.9,0.3 4.3,0.5 2.4,0.4 4.9,0.8 7.3,1.3 2.4,0.4 4.3,1.2 6.3,2.5 1.3,0.8 2.8,1.8 4.4,1.8 0.2,0 0.4,-0.3 0.2,-0.5 0,0 0,0 0,0 0.1,-0.2 0,-0.6 -0.3,-0.6 -0.2,0 -0.3,0 -0.5,-0.1 -0.6,-0.5 -1.2,-1 -1.8,-1.5 -0.4,-0.9 -0.4,-2.1 0.3,-3 0.6,-0.8 1.6,-1 1.6,-2.1 0,-0.1 0,-0.2 -0.1,-0.3 0.2,-0.3 0.1,-0.8 -0.3,-0.8 -2.2,0.2 -4.7,0.6 -6.9,-0.1 -2.7,-0.8 -3.8,-2.8 -4.7,-5.3 -0.7,-2 -1.2,-4.2 -1.3,-6.3 0,-0.2 0,-1.2 0.2,-2.3 -1.3,1.2 -2.6,2.5 -3.9,3.7 -2.6,3.1 -5.1,4.4 -7.5,6.1 z M 490.6,481.5 c -1.2,-0.2 -1.8,1.5 -0.8,2.2 6.4,4.1 13.4,8.2 20.8,10.6 0.5,4.6 1.9,8.9 2.6,13.6 0.1,0.9 0.9,1.1 1.5,0.8 0,0 0.1,0 0.1,0 2.4,0.2 4.5,0 6.4,-1.4 2,-1.4 3.5,-2.6 6.1,-1.4 1.9,0.9 2,1.4 2,3.4 -0.1,2.8 -0.5,5.9 1,8.4 0.9,1.5 2.2,3.5 3.8,4.4 0.5,1 1,2 1.5,3 1.2,2.6 2,5.5 2.2,8.4 0,0.7 0.2,3.5 -0.1,5.8 -2.7,-2.8 -6.4,-4.8 -10.1,-5.5 -2.5,-0.5 -5.7,-0.8 -7.9,0.7 -0.8,-5.8 -3.3,-11.4 -7.5,-15 -4.5,-3.9 -10,-4.7 -13.5,-1.5 -2.6,-2.6 -6.5,-4 -10.4,-3.8 -2.9,0.2 -6.1,0.8 -8.3,2.8 -0.2,0.1 -0.3,0.3 -0.4,0.5 0.3,-3.1 1.4,-5.2 3.1,-8 1.3,-2 2.7,-4 4.5,-5.5 2.6,-2.4 5.9,-2.4 9.1,-3.5 0.1,0 0.1,-0.2 0.1,-0.2 -1.8,-1.8 -3.8,-2.4 -5.9,-2.4 0.6,-5.7 -7.1,-10.3 -11.9,-11.1 -2.6,-0.5 -5.2,-0.2 -7.4,-1.8 -2.7,-1.9 -3.1,-4.7 -3.8,-7.7 -1.2,-5.5 -4.8,-10.8 -2.5,-16.4 0.8,-0.4 0.7,-1.8 -0.3,-2.2 -9.1,-3.8 -7.3,-25.9 3.2,-25.9 1,0 1.7,-1.4 0.9,-2.1 -0.1,-0.1 -0.3,-0.2 -0.4,-0.3 -0.1,-0.2 -0.2,-0.5 -0.5,-0.7 -1.3,-0.9 -2.9,-1.4 -4.3,-2.1 -0.8,-0.4 -1.6,-0.9 -2.4,-1.4 -1.7,-2.1 -3.2,-4.9 -4.1,-6.3 -2.2,-3.6 -3.7,-7.8 -4.3,-12 -0.7,-4.6 -0.5,-9.7 1.7,-13.9 1.4,-2.6 6.8,-8.9 10.5,-7.4 3,1.3 0.4,11.2 0.3,14 -0.1,3.4 -0.1,7.1 1.2,10.3 1.3,3.3 3.8,5.4 6.7,7.3 2.3,1.5 4.4,3 6.2,4.7 1.5,4.1 0.8,9 0.7,13.2 -0.2,5 0.3,9.9 1.5,14.8 2.7,10.4 6.1,20.5 9.1,30.6 z"
   id="path1719"
   inkscape:connector-curvature="0"
   style="opacity:0.3;fill:#05132b" />
				<path
   enable-background="new    "
   d="m 1287.8,728.5 c 0.1,0.2 0.2,0.4 0.4,0.5 0,-0.1 -0.2,-0.2 -0.4,-0.5 z"
   id="path1721"
   inkscape:connector-curvature="0"
   style="opacity:0.3;fill:#05132b" />
				<path
   enable-background="new    "
   d="m 1136.5,178.4 c 2.9,-0.6 5.3,-2.5 8.1,-3.3 2.1,-0.6 4,-0.5 5.9,-1.9 1.9,-1.3 2.8,-3.5 4.5,-4.9 4.2,-3.5 9.2,-2.3 12.7,1.3 2.3,2.3 4.2,5.3 5.4,8.3 1.7,4 1,7.6 1.8,11.6 0.1,0.3 0.6,0.5 0.8,0.2 0.1,-0.1 0.1,-0.1 0.2,-0.2 0.1,0 0.1,0 0.2,-0.1 4.7,-2.6 8.4,-6.2 14.3,-4 5.2,1.9 7,7.1 9.1,11.7 0.1,0.1 0.3,0.1 0.4,-0.1 0,-0.1 0,-0.2 0,-0.4 0,0 0,0 0,0.1 0,0.1 0.2,0.2 0.3,0.2 3.7,-1.5 5.6,-3.2 9.7,-1.5 4.2,1.7 8.1,4.7 9.8,9 0.1,0.1 0.1,0.2 0.2,0.3 0.1,0.6 1,0.7 1.4,0.2 1.6,-2.6 7.2,-5.1 9.9,-5.9 4.9,-1.4 8.5,1.1 10.8,5.4 1.8,3.5 2.4,7.3 3.2,11.1 0.8,3.8 2.5,7 3.6,10.7 1.2,3.8 2.1,7.9 2,11.9 -0.1,4 -2,6.8 -2.7,10.5 -0.5,2.5 0.5,5.9 3.7,4.2 0.2,-0.1 0.4,-0.2 0.5,-0.4 4.4,-0.2 6.2,-4 6.8,-8.1 1.2,-8.1 1.1,-16.7 0.7,-24.8 -0.6,-11.2 -4.2,-25 -16.5,-28.4 -2,-0.6 -4.7,-0.9 -6.7,-0.2 -3,1.1 -3.5,4.5 -7.2,4.7 -7.9,0.4 -7.9,-10.1 -14,-12.4 -1.7,-0.6 -3.1,-0.1 -4.8,0.1 -6.3,0.8 -9.3,-2.1 -13,-6.6 -0.7,-0.8 -1.5,-1.7 -2.4,-2.5 -2.6,-3.1 -6.1,-3.9 -10.1,-3.6 -0.5,0 -0.9,0.4 -0.9,0.9 0,0.1 0,0.1 0,0.2 0.2,1.2 -0.3,3.3 -0.6,4.4 -0.1,0.2 -0.1,0.4 -0.2,0.6 -0.4,0.4 -0.9,0.8 -1.7,1.1 -1,0.4 -2.6,0.7 -3.6,0.2 -0.5,-0.2 -0.8,-0.7 -1.1,-1.3 -0.2,-0.4 -0.4,-0.9 -0.6,-1.3 0.2,-8.1 -6.3,-13.9 -14.7,-14 -5.7,-0.1 -11.6,2.1 -16.8,4.1 -5.1,1.9 -11,3.9 -15.1,7.7 -0.4,0.1 -0.7,0.5 -0.6,0.9 0.5,3.8 4.2,4.9 7.3,4.3 z"
   id="path1723"
   inkscape:connector-curvature="0"
   style="opacity:0.3;fill:#05132b" />
				<path
   enable-background="new    "
   d="m 936.6,194.8 c 0.2,-0.1 0.4,-0.3 0.5,-0.7 0.4,-5.2 1.3,-9.6 4.9,-13.5 3.2,-3.5 6.7,-4.7 11.3,-5.6 4.4,-0.9 7.8,-2.9 12.5,-1.8 3.5,0.9 8.7,3.3 11.4,5.9 0.3,0.9 1.8,0.8 1.8,-0.3 0.2,-2.4 1.1,-4.4 2.5,-6.2 0.2,-0.2 0.3,-0.4 0.5,-0.6 6.2,-7.1 20.4,-9 27.7,-5 3.9,2.1 7.6,6.4 10.1,9.9 1.9,2.6 0.9,6.7 4.3,7.9 0.4,0.1 0.8,0.1 1.1,0 3.1,2 7.3,2.4 9.5,5.6 0.7,1 2.2,1.4 3.1,0.4 8.8,-9.7 -6.5,-18.7 -13.6,-22.6 -11.2,-6 -25.3,-12.1 -37.9,-6.9 -3,1.2 -5.3,3.3 -8,4.8 -3.8,2.2 -7.4,0.7 -11.4,0.2 -6.3,-0.7 -12.7,-0.1 -18.5,2.5 -8.9,3.9 -19.5,15.7 -14.3,26 0.4,1.2 1.9,0.9 2.5,0 z"
   id="path1725"
   inkscape:connector-curvature="0"
   style="opacity:0.3;fill:#05132b" />
				<path
   enable-background="new    "
   d="m 640,538.5 c -1,-0.5 -2.1,-1.2 -3.1,-1.9 -2,-1.6 -3.6,-3.4 -5,-5.9 -1.9,-3.4 -2.7,-7 -3.5,-10.7 0,-0.3 0,-0.6 0,-0.9 0,-0.3 -0.3,-0.6 -0.6,-0.6 -4.9,-0.4 -9.8,-0.7 -14.7,-1.4 -0.2,-0.1 -0.4,-0.1 -0.6,-0.2 -1.8,-0.5 -3.5,-1.1 -5.2,-1.9 -2.5,-1.4 -4.8,-3.4 -6.8,-6.2 -5.8,-8.5 -4.6,-18.6 1,-26.8 0.6,-0.4 1.1,-1.1 1,-1.9 -0.5,-4.3 -1.6,-8.4 -1.5,-12.7 0.7,-1.9 1.4,-3.7 2.1,-5.2 1.1,-2.4 2.4,-4.5 4.1,-6.5 1.2,-1.4 2.8,-2.5 3.5,-4.2 0.1,-0.1 0,-0.3 -0.1,-0.3 -5.6,-3.7 -11.2,4.7 -13,8.8 -2.8,6.4 -6.1,15.8 -2,22.5 -6.6,6.2 -4.2,20.9 0,27.5 2.9,4.6 7.4,8.4 12.4,10.6 3.6,1.6 8.1,3.2 12.4,3.4 1.7,4.7 3.9,8.3 8.2,11.6 2.9,2.3 5.5,4 8.6,5 5.3,2.6 17.2,6.6 21.2,1.5 0.2,-0.2 0,-0.7 -0.3,-0.5 -5.2,1.8 -13.4,-0.7 -18.1,-3.1 z"
   id="path1727"
   inkscape:connector-curvature="0"
   style="opacity:0.3;fill:#05132b" />
			</g>
	
	
</svg>